<?xml version="1.0" standalone="no"?>
<!DOCTYPE svg PUBLIC "-//W3C//DTD SVG 20010904//EN"
 "http://www.w3.org/TR/2001/REC-SVG-20010904/DTD/svg10.dtd">
<svg version="1.0" xmlns="http://www.w3.org/2000/svg"
 width="512.000000pt" height="221.000000pt" viewBox="0 0 512.000000 221.000000"
 preserveAspectRatio="xMidYMid meet">

<g transform="translate(0.000000,221.000000) scale(0.100000,-0.100000)"
fill="#000000" stroke="none">
<path d="M0 1105 l0 -1105 2560 0 2560 0 0 1105 0 1105 -2560 0 -2560 0 0
-1105z m2662 826 c292 -75 527 -315 598 -614 27 -112 27 -282 0 -394 -78 -327
-338 -571 -670 -629 -417 -72 -825 198 -936 621 -25 96 -26 313 -1 404 43 158
100 262 207 374 135 143 269 216 463 253 91 17 238 11 339 -15z"/>
<path d="M2262 1578 c-14 -14 -16 -35 -4 -42 5 -3 8 5 8 17 -1 16 7 23 29 28
28 6 28 7 5 8 -15 0 -31 -4 -38 -11z"/>
<path d="M2383 1583 c9 -2 23 -2 30 0 6 3 -1 5 -18 5 -16 0 -22 -2 -12 -5z"/>
<path d="M2512 1518 l2 -73 3 63 c3 45 7 61 16 55 7 -4 7 0 -2 10 -7 9 -15 17
-17 17 -2 0 -3 -33 -2 -72z"/>
<path d="M2612 1531 l-2 -64 -30 41 c-17 23 -32 42 -35 42 -3 0 12 -24 33 -52
l37 -53 3 38 c2 20 1 54 -1 75 -2 24 -4 15 -5 -27z"/>
<path d="M2683 1583 c9 -2 25 -2 35 0 9 3 1 5 -18 5 -19 0 -27 -2 -17 -5z"/>
<path d="M2783 1583 c15 -2 37 -2 50 0 12 2 0 4 -28 4 -27 0 -38 -2 -22 -4z"/>
<path d="M2432 1555 c0 -16 2 -22 5 -12 2 9 2 23 0 30 -3 6 -5 -1 -5 -18z"/>
<path d="M2300 1508 c25 -24 38 -29 25 -9 -3 6 -16 16 -28 22 -20 11 -20 9 3
-13z"/>
<path d="M2127 1513 c-4 -3 -7 -13 -7 -22 1 -13 3 -13 11 2 11 19 8 33 -4 20z"/>
<path d="M2196 1500 c3 -14 11 -32 16 -40 6 -10 7 -7 2 10 -3 14 -11 32 -16
40 -6 10 -7 7 -2 -10z"/>
<path d="M2383 1513 c9 -2 23 -2 30 0 6 3 -1 5 -18 5 -16 0 -22 -2 -12 -5z"/>
<path d="M2258 1458 c6 -6 18 -8 28 -6 14 3 12 5 -9 10 -19 3 -25 2 -19 -4z"/>
<path d="M2683 1453 c9 -2 25 -2 35 0 9 3 1 5 -18 5 -19 0 -27 -2 -17 -5z"/>
<path d="M2154 1326 c-56 -26 -89 -55 -132 -118 -41 -61 -52 -100 -52 -191 0
-67 4 -88 30 -142 17 -35 49 -80 73 -102 111 -102 292 -110 413 -18 57 43 26
51 -40 11 -154 -93 -337 -42 -415 116 -56 112 -39 252 42 344 23 26 63 57 92
70 93 44 244 26 311 -37 17 -16 23 -17 32 -6 9 10 1 20 -36 43 -67 44 -104 54
-191 53 -57 0 -89 -6 -127 -23z"/>
<path d="M2530 1015 c0 -131 2 -155 15 -155 12 0 15 18 15 104 0 91 3 107 23
137 18 27 30 35 60 37 47 4 52 32 6 32 -22 0 -40 -9 -60 -31 l-29 -31 0 31 c0
21 -5 31 -15 31 -13 0 -15 -24 -15 -155z"/>
<path d="M2776 1149 c-40 -32 -56 -71 -56 -141 0 -82 22 -120 83 -143 40 -15
50 -15 93 -3 32 9 50 20 52 32 4 16 2 16 -27 2 -38 -20 -90 -20 -119 0 -26 18
-52 65 -52 94 0 19 6 20 110 20 l110 0 0 30 c0 42 -23 94 -51 114 -34 23 -110
21 -143 -5z m109 -9 c23 -9 55 -60 55 -90 0 -6 -37 -10 -96 -10 -94 0 -95 0
-89 23 11 36 40 71 66 78 35 10 35 10 64 -1z"/>
</g>
</svg>
