<?xml version="1.0" encoding="utf-8"?>
<!-- Generator: Adobe Illustrator 24.0.2, SVG Export Plug-In . SVG Version: 6.00 Build 0)  -->
<svg version="1.1" id="Layer_1" xmlns="http://www.w3.org/2000/svg" xmlns:xlink="http://www.w3.org/1999/xlink" x="0px" y="0px"
	 viewBox="0 0 1669 314" style="enable-background:new 0 0 1669 314;" xml:space="preserve">
<style type="text/css">
	.st0{fill:#30347D;stroke:#30347D;stroke-miterlimit:10;}
	.st1{fill:#E57225;stroke:#E57225;stroke-miterlimit:10;}
	.st2{fill:#30347D;}
	.st3{fill:#AE9E38;}
	.st4{fill:#30347D;stroke:#30347D;stroke-width:3;stroke-miterlimit:10;}
</style>
<g>
	<path class="st0" d="M497.38,69.94c5.29,2.15,9.71,5.13,13.27,8.93c3.55,3.8,5.33,7.85,5.33,12.15c0,6.61-3.14,12.26-9.42,16.93
		c-6.28,4.67-13.81,7.01-22.57,7.01c-3.72,0-9.3-0.08-16.74-0.25c-7.44-0.17-13.02-0.25-16.74-0.25c0.83-4.05,1.24-8.14,1.24-12.28
		V40.06c0-1.82-0.1-3.76-0.31-5.83c-0.21-2.07-0.43-3.68-0.68-4.84l-0.25-1.74c2.23,0,6.9-0.08,14.01-0.25
		c7.11-0.17,12.61-0.25,16.49-0.25c8.18,0,15.25,2.34,21.2,7.01c5.95,4.67,8.93,10.27,8.93,16.8c0,3.56-1.28,7.01-3.84,10.35
		C504.74,64.67,501.43,67.54,497.38,69.94z M478.54,33.61c-1.16,0-3.02,0.06-5.58,0.19c-2.56,0.12-4.67,0.19-6.32,0.19V68.2
		c1.32,0,3.31,0.02,5.95,0.06c2.64,0.04,4.63,0.06,5.95,0.06c4.88,0,8.99-1.65,12.34-4.96c3.35-3.31,5.02-7.65,5.02-13.02
		c0-4.79-1.7-8.78-5.08-11.97C487.42,35.2,483.33,33.61,478.54,33.61z M466.63,108.13c1.57,0,4.07,0.06,7.5,0.19
		c3.43,0.12,6.14,0.19,8.12,0.19c5.13,0,9.49-1.63,13.08-4.9c3.6-3.26,5.39-7.25,5.39-11.97c0-5.37-1.84-9.71-5.52-13.02
		c-3.68-3.31-8.25-4.96-13.7-4.96c-6.45,0-11.41,0.08-14.88,0.25V108.13z"/>
	<path class="st0" d="M587.42,104.28l-10.1-22.06H546.6l-10.02,22.02c-0.9,1.99-1.59,3.43-2.08,4.3c-0.49,0.87-1.31,1.99-2.45,3.36
		c-1.14,1.37-2.52,2.34-4.12,2.93c-1.6,0.58-3.52,0.87-5.75,0.87c2.4-3.8,4.46-7.6,6.2-11.41l37.69-82.83l37.69,82.83
		c0.74,1.65,1.63,3.43,2.67,5.33c1.03,1.9,1.88,3.39,2.54,4.46l0.99,1.61c-4.13,0-7.58-0.29-10.35-0.87
		c-2.77-0.58-4.93-1.53-6.5-2.85s-2.69-2.46-3.35-3.41C589.11,107.61,588.33,106.18,587.42,104.28z M561.92,48.55l-11.94,26.23
		h23.93L561.92,48.55z"/>
	<path class="st0" d="M695.78,120.66L630.93,51.5v50.56c0,1.65-0.02,2.93-0.06,3.84c-0.04,0.91-0.23,2.09-0.56,3.53
		c-0.33,1.45-0.79,2.54-1.36,3.28c-0.58,0.74-1.49,1.43-2.73,2.05c-1.24,0.62-2.73,0.93-4.46,0.93c0.83-4.96,1.24-9.51,1.24-13.64
		v-80.6l64.85,69.16V40.13c0-1.74,0.06-3.2,0.19-4.36c0.12-1.16,0.45-2.58,0.99-4.24c0.54-1.66,1.47-2.93,2.79-3.8
		c1.32-0.87,3.06-1.31,5.21-1.31c-0.83,4.96-1.24,9.51-1.24,13.64V120.66z"/>
	<path class="st0" d="M791.51,120.66L726.66,51.5v50.56c0,1.65-0.02,2.93-0.06,3.84c-0.04,0.91-0.23,2.09-0.56,3.53
		c-0.33,1.45-0.79,2.54-1.36,3.28c-0.58,0.74-1.49,1.43-2.73,2.05c-1.24,0.62-2.73,0.93-4.46,0.93c0.83-4.96,1.24-9.51,1.24-13.64
		v-80.6l64.85,69.16V40.13c0-1.74,0.06-3.2,0.19-4.36c0.13-1.16,0.45-2.58,0.99-4.24c0.54-1.66,1.47-2.93,2.79-3.8
		c1.32-0.87,3.06-1.31,5.21-1.31c-0.83,4.96-1.24,9.51-1.24,13.64V120.66z"/>
	<path class="st0" d="M869.77,104.28l-10.1-22.06h-30.72l-10.02,22.02c-0.9,1.99-1.59,3.43-2.08,4.3c-0.49,0.87-1.31,1.99-2.45,3.36
		c-1.14,1.37-2.51,2.34-4.12,2.93c-1.6,0.58-3.52,0.87-5.75,0.87c2.4-3.8,4.46-7.6,6.2-11.41l37.69-82.83l37.69,82.83
		c0.74,1.65,1.63,3.43,2.67,5.33c1.03,1.9,1.88,3.39,2.54,4.46l0.99,1.61c-4.13,0-7.58-0.29-10.35-0.87
		c-2.77-0.58-4.93-1.53-6.5-2.85s-2.69-2.46-3.35-3.41C871.46,107.61,870.68,106.18,869.77,104.28z M844.27,48.55l-11.94,26.23
		h23.94L844.27,48.55z"/>
	<path class="st0" d="M924.93,69.44h9.55c4.96,0,9.07-1.9,12.34-5.7c3.26-3.8,4.9-8.18,4.9-13.14c0-4.88-1.61-8.87-4.84-11.97
		c-3.22-3.1-7.15-4.65-11.78-4.65c-1.24,0-3.43,0.04-6.57,0.12c-3.14,0.08-5.91,0.12-8.31,0.12v67.83c0,2.15-0.1,3.78-0.31,4.9
		c-0.21,1.12-0.77,2.48-1.67,4.09c-0.91,1.61-2.54,2.79-4.9,3.53s-5.44,1.12-9.24,1.12c0.83-4.96,1.24-9.51,1.24-13.64v-62
		c0-1.82-0.1-3.76-0.31-5.83c-0.21-2.07-0.43-3.68-0.68-4.84l-0.25-1.74c3.47,0,8.93-0.08,16.37-0.25
		c7.44-0.17,13.14-0.25,17.11-0.25c8.18,0,15.07,2.11,20.65,6.32c5.58,4.22,8.37,9.84,8.37,16.86c0,5.63-2.24,10.43-6.71,14.4
		c-4.47,3.97-10.35,6.58-17.64,7.82l24.26,33.05c1.32,1.74,2.71,3.44,4.15,5.1c1.45,1.66,2.58,2.9,3.41,3.73l1.24,1.24
		c-5.04,0-9.26-0.56-12.66-1.67c-3.4-1.12-5.72-2.25-6.96-3.41c-1.24-1.16-2.7-2.81-4.35-4.96L924.93,69.44z"/>
	<path class="st0" d="M1006.9,40.06v74.4h-14.88v-74.4c0-2.15,0.1-3.78,0.31-4.9c0.21-1.12,0.76-2.48,1.67-4.09
		c0.91-1.61,2.54-2.79,4.9-3.53c2.36-0.74,5.43-1.12,9.24-1.12C1007.31,31.38,1006.9,35.92,1006.9,40.06z"/>
	<path class="st0" d="M1135.37,104.28l-10.1-22.06h-30.72l-10.02,22.02c-0.9,1.99-1.59,3.43-2.08,4.3
		c-0.49,0.87-1.31,1.99-2.45,3.36c-1.14,1.37-2.51,2.34-4.12,2.93c-1.6,0.58-3.52,0.87-5.75,0.87c2.4-3.8,4.46-7.6,6.2-11.41
		l37.69-82.83l37.69,82.83c0.74,1.65,1.63,3.43,2.67,5.33c1.03,1.9,1.88,3.39,2.54,4.46l0.99,1.61c-4.13,0-7.58-0.29-10.35-0.87
		c-2.77-0.58-4.93-1.53-6.5-2.85s-2.69-2.46-3.35-3.41C1137.07,107.61,1136.28,106.18,1135.37,104.28z M1109.88,48.55l-11.94,26.23
		h23.93L1109.88,48.55z"/>
	<path class="st0" d="M1259.63,51.12l-31.3,69.58l-33.36-69.83l-18.59,52.83c-0.56,1.83-1.1,3.31-1.62,4.44
		c-0.52,1.13-1.26,2.35-2.21,3.69c-0.96,1.33-2.19,2.31-3.69,2.94c-1.5,0.62-3.28,0.94-5.35,0.94c1.98-3.97,3.68-7.94,5.08-11.9
		l28.77-82.34l34.6,73.03l32.86-73.03l29.08,82.15c0.63,1.79,1.31,3.7,2.03,5.73c0.72,2.03,1.37,3.57,1.95,4.64l0.74,1.73
		c-3.86,0-7.09-0.31-9.67-0.93c-2.58-0.62-4.57-1.62-5.96-2.99c-1.4-1.37-2.36-2.55-2.89-3.55c-0.53-0.99-1.17-2.49-1.91-4.48
		L1259.63,51.12z"/>
	<path class="st0" d="M1402.84,51.12l-31.3,69.58l-33.36-69.83l-18.59,52.83c-0.56,1.83-1.1,3.31-1.62,4.44
		c-0.52,1.13-1.26,2.35-2.21,3.69c-0.96,1.33-2.19,2.31-3.69,2.94c-1.5,0.62-3.28,0.94-5.35,0.94c1.98-3.97,3.68-7.94,5.08-11.9
		l28.77-82.34l34.6,73.03l32.86-73.03l29.08,82.15c0.63,1.79,1.31,3.7,2.03,5.73c0.72,2.03,1.37,3.57,1.95,4.64l0.74,1.73
		c-3.86,0-7.09-0.31-9.67-0.93c-2.58-0.62-4.57-1.62-5.96-2.99c-1.4-1.37-2.36-2.55-2.89-3.55c-0.53-0.99-1.17-2.49-1.91-4.48
		L1402.84,51.12z"/>
	<path class="st0" d="M1512.7,104.28l-10.1-22.06h-30.72l-10.02,22.02c-0.9,1.99-1.59,3.43-2.08,4.3c-0.49,0.87-1.31,1.99-2.45,3.36
		c-1.14,1.37-2.51,2.34-4.12,2.93c-1.6,0.58-3.52,0.87-5.75,0.87c2.4-3.8,4.46-7.6,6.2-11.41l37.69-82.83l37.69,82.83
		c0.74,1.65,1.63,3.43,2.67,5.33c1.03,1.9,1.88,3.39,2.54,4.46l0.99,1.61c-4.13,0-7.58-0.29-10.35-0.87
		c-2.77-0.58-4.93-1.53-6.5-2.85s-2.69-2.46-3.35-3.41C1514.39,107.61,1513.61,106.18,1512.7,104.28z M1487.2,48.55l-11.94,26.23
		h23.93L1487.2,48.55z"/>
	<path class="st0" d="M1621.06,120.66l-64.85-69.16v50.56c0,1.65-0.02,2.93-0.06,3.84c-0.04,0.91-0.23,2.09-0.56,3.53
		c-0.33,1.45-0.79,2.54-1.36,3.28c-0.58,0.74-1.49,1.43-2.73,2.05c-1.24,0.62-2.73,0.93-4.46,0.93c0.83-4.96,1.24-9.51,1.24-13.64
		v-80.6l64.85,69.16V40.13c0-1.74,0.06-3.2,0.19-4.36c0.12-1.16,0.45-2.58,0.99-4.24c0.54-1.66,1.47-2.93,2.79-3.8
		c1.32-0.87,3.06-1.31,5.21-1.31c-0.83,4.96-1.24,9.51-1.24,13.64V120.66z"/>
</g>
<g>
	<path class="st0" d="M466.62,246.08l-2.85-6.23h-8.67l-2.83,6.22c-0.25,0.56-0.45,0.97-0.59,1.21c-0.14,0.25-0.37,0.56-0.69,0.95
		s-0.71,0.66-1.16,0.83s-0.99,0.25-1.62,0.25c0.68-1.07,1.26-2.15,1.75-3.22l10.64-23.38l10.64,23.38c0.21,0.47,0.46,0.97,0.75,1.5
		c0.29,0.54,0.53,0.96,0.72,1.26l0.28,0.46c-1.17,0-2.14-0.08-2.92-0.24c-0.78-0.16-1.39-0.43-1.83-0.81
		c-0.44-0.37-0.76-0.7-0.94-0.96C467.1,247.02,466.88,246.61,466.62,246.08z M459.42,230.35l-3.37,7.4h6.76L459.42,230.35z"/>
	<path class="st0" d="M482.37,231.45v3.99c2.4-2.78,4.89-4.17,7.46-4.17c0.82,0,1.53,0.09,2.15,0.28c0.62,0.19,1.11,0.49,1.47,0.91
		c0.36,0.42,0.65,0.83,0.88,1.23c0.22,0.4,0.37,0.96,0.46,1.7c0.08,0.74,0.13,1.34,0.16,1.8c0.02,0.47,0.03,1.13,0.03,2v9.76h-3.99
		v-9.94c0-0.58-0.01-1.04-0.02-1.38c-0.01-0.34-0.04-0.77-0.07-1.29c-0.04-0.53-0.09-0.94-0.18-1.24c-0.08-0.3-0.19-0.61-0.31-0.93
		c-0.13-0.32-0.3-0.55-0.51-0.7s-0.47-0.23-0.77-0.23c-0.63,0-1.29,0.21-2,0.63s-1.32,0.93-1.87,1.52
		c-0.55,0.59-1.04,1.19-1.49,1.79c-0.44,0.59-0.78,1.1-1.02,1.52l-0.39,0.63v9.63h-3.95v-17.5H482.37z"/>
	<path class="st0" d="M533.89,246.08l-2.85-6.23h-8.67l-2.83,6.22c-0.25,0.56-0.45,0.97-0.59,1.21c-0.14,0.25-0.37,0.56-0.69,0.95
		s-0.71,0.66-1.16,0.83s-0.99,0.25-1.62,0.25c0.68-1.07,1.26-2.15,1.75-3.22l10.64-23.38l10.64,23.38c0.21,0.47,0.46,0.97,0.75,1.5
		c0.29,0.54,0.53,0.96,0.72,1.26l0.28,0.46c-1.17,0-2.14-0.08-2.92-0.24c-0.78-0.16-1.39-0.43-1.83-0.81
		c-0.44-0.37-0.76-0.7-0.94-0.96C534.37,247.02,534.15,246.61,533.89,246.08z M526.69,230.35l-3.37,7.4h6.76L526.69,230.35z"/>
	<path class="st0" d="M558.14,248.95v-3.99c-2.4,2.78-4.89,4.17-7.46,4.17c-0.82,0-1.53-0.09-2.15-0.28
		c-0.62-0.19-1.11-0.49-1.47-0.91c-0.36-0.42-0.65-0.83-0.88-1.23c-0.22-0.4-0.37-0.96-0.46-1.7c-0.08-0.74-0.13-1.34-0.16-1.8
		c-0.02-0.47-0.04-1.13-0.04-2v-9.76h3.99v9.94c0,0.58,0.01,1.04,0.02,1.38c0.01,0.34,0.04,0.77,0.07,1.29
		c0.03,0.53,0.09,0.94,0.17,1.24c0.08,0.3,0.19,0.61,0.31,0.93c0.13,0.32,0.3,0.55,0.51,0.7c0.21,0.15,0.47,0.23,0.77,0.23
		c0.63,0,1.3-0.21,2-0.63c0.7-0.42,1.32-0.93,1.87-1.52c0.55-0.59,1.04-1.19,1.49-1.79s0.79-1.1,1.05-1.52l0.35-0.63v-9.63h3.96
		v17.5H558.14z"/>
	<path class="st0" d="M584.25,248.95h-7.7c-0.77,0-1.39-0.02-1.87-0.05c-0.48-0.04-0.9-0.16-1.26-0.38
		c-0.36-0.22-0.62-0.43-0.77-0.63c-0.15-0.2-0.28-0.59-0.38-1.19c-0.1-0.59-0.16-1.14-0.18-1.64s-0.02-1.3-0.02-2.4v-9.24h-3.85
		v-1.96h3.85v-5.25h3.99v5.25h7.35v1.96h-7.35v8.75c0,2.19,0.12,3.55,0.35,4.06c0.23,0.51,0.93,0.77,2.1,0.77h5.74V248.95z"/>
	<path class="st0" d="M591.88,246.6c-1.82-1.73-2.73-3.86-2.73-6.41c0-2.54,0.91-4.68,2.73-6.41c1.82-1.73,4.08-2.59,6.79-2.59
		c2.71,0,4.97,0.86,6.79,2.59c1.82,1.73,2.73,3.86,2.73,6.41c0,2.54-0.91,4.68-2.73,6.41c-1.82,1.73-4.08,2.59-6.79,2.59
		C595.96,249.19,593.7,248.33,591.88,246.6z M594.89,235c-1,1.41-1.5,3.14-1.5,5.2c0,2.05,0.5,3.79,1.5,5.2
		c1,1.41,2.26,2.12,3.78,2.12c1.52,0,2.78-0.71,3.78-2.12c1-1.41,1.5-3.14,1.5-5.2c0-2.05-0.5-3.79-1.5-5.2
		c-1-1.41-2.26-2.12-3.78-2.12C597.15,232.88,595.89,233.59,594.89,235z"/>
	<path class="st0" d="M618.79,231.45v3.99c2.4-2.78,4.89-4.17,7.46-4.17c0.82,0,1.53,0.09,2.15,0.28c0.62,0.19,1.11,0.49,1.47,0.91
		c0.36,0.42,0.65,0.83,0.88,1.23c0.22,0.4,0.37,0.96,0.46,1.7c0.08,0.74,0.13,1.34,0.16,1.8c0.02,0.47,0.03,1.13,0.03,2v9.76h-3.99
		v-9.94c0-0.58-0.01-1.04-0.02-1.38c-0.01-0.34-0.04-0.77-0.07-1.29c-0.04-0.53-0.09-0.94-0.18-1.24c-0.08-0.3-0.19-0.61-0.31-0.93
		c-0.13-0.32-0.3-0.55-0.51-0.7s-0.47-0.23-0.77-0.23c-0.63,0-1.29,0.21-2,0.63s-1.32,0.93-1.87,1.52
		c-0.55,0.59-1.04,1.19-1.49,1.79c-0.44,0.59-0.78,1.1-1.02,1.52l-0.39,0.63v9.63h-3.95v-17.5H618.79z"/>
	<path class="st0" d="M640.63,246.6c-1.82-1.73-2.73-3.86-2.73-6.41c0-2.54,0.91-4.68,2.73-6.41c1.82-1.73,4.08-2.59,6.79-2.59
		c2.71,0,4.97,0.86,6.79,2.59c1.82,1.73,2.73,3.86,2.73,6.41c0,2.54-0.91,4.68-2.73,6.41c-1.82,1.73-4.08,2.59-6.79,2.59
		C644.72,249.19,642.45,248.33,640.63,246.6z M643.64,235c-1,1.41-1.5,3.14-1.5,5.2c0,2.05,0.5,3.79,1.5,5.2
		c1,1.41,2.26,2.12,3.78,2.12c1.52,0,2.78-0.71,3.78-2.12c1-1.41,1.5-3.14,1.5-5.2c0-2.05-0.5-3.79-1.5-5.2
		c-1-1.41-2.26-2.12-3.78-2.12C645.91,232.88,644.65,233.59,643.64,235z"/>
	<path class="st0" d="M667.55,231.45v3.99c2.4-2.78,4.89-4.17,7.46-4.17c1.63,0,2.82,0.38,3.57,1.14c0.75,0.76,1.21,1.83,1.4,3.2
		l0.17-0.17c2.4-2.78,4.89-4.17,7.46-4.17c0.82,0,1.53,0.09,2.15,0.28s1.11,0.49,1.47,0.91c0.36,0.42,0.65,0.83,0.88,1.23
		c0.22,0.4,0.37,0.96,0.46,1.7c0.08,0.74,0.13,1.34,0.16,1.8c0.02,0.47,0.04,1.13,0.04,2v9.76h-3.99v-9.94
		c0-0.58-0.01-1.04-0.02-1.38c-0.01-0.34-0.04-0.77-0.07-1.29c-0.03-0.53-0.09-0.94-0.17-1.24c-0.08-0.3-0.19-0.61-0.31-0.93
		c-0.13-0.32-0.3-0.55-0.51-0.7c-0.21-0.15-0.47-0.23-0.77-0.23c-0.77,0-1.57,0.29-2.41,0.88c-0.84,0.58-1.57,1.28-2.19,2.08
		c-0.62,0.81-1.11,1.48-1.47,2.03c-0.36,0.55-0.59,0.92-0.68,1.1v9.63h-3.99v-9.94c0-0.58-0.01-1.04-0.02-1.38
		c-0.01-0.34-0.04-0.77-0.07-1.29c-0.04-0.53-0.09-0.94-0.18-1.24c-0.08-0.3-0.19-0.61-0.31-0.93c-0.13-0.32-0.3-0.55-0.51-0.7
		s-0.47-0.23-0.77-0.23c-0.63,0-1.29,0.21-2,0.63s-1.32,0.93-1.87,1.52c-0.55,0.59-1.04,1.19-1.49,1.79
		c-0.44,0.59-0.78,1.1-1.02,1.52l-0.39,0.63v9.63h-3.95v-17.5H667.55z"/>
	<path class="st0" d="M701.99,246.6c-1.82-1.73-2.73-3.86-2.73-6.41c0-2.54,0.91-4.68,2.73-6.41c1.82-1.73,4.08-2.59,6.79-2.59
		c2.71,0,4.97,0.86,6.79,2.59c1.82,1.73,2.73,3.86,2.73,6.41c0,2.54-0.91,4.68-2.73,6.41c-1.82,1.73-4.08,2.59-6.79,2.59
		C706.07,249.19,703.81,248.33,701.99,246.6z M705,235c-1,1.41-1.5,3.14-1.5,5.2c0,2.05,0.5,3.79,1.5,5.2
		c1,1.41,2.26,2.12,3.78,2.12c1.52,0,2.78-0.71,3.78-2.12c1-1.41,1.5-3.14,1.5-5.2c0-2.05-0.5-3.79-1.5-5.2
		c-1-1.41-2.26-2.12-3.78-2.12C707.26,232.88,706,233.59,705,235z"/>
	<path class="st0" d="M737.41,248.95v-3.99c-2.4,2.78-4.89,4.17-7.46,4.17c-0.82,0-1.53-0.09-2.15-0.28
		c-0.62-0.19-1.11-0.49-1.47-0.91c-0.36-0.42-0.65-0.83-0.88-1.23c-0.22-0.4-0.37-0.96-0.46-1.7c-0.08-0.74-0.13-1.34-0.16-1.8
		c-0.02-0.47-0.04-1.13-0.04-2v-9.76h3.99v9.94c0,0.58,0.01,1.04,0.02,1.38c0.01,0.34,0.04,0.77,0.07,1.29
		c0.03,0.53,0.09,0.94,0.17,1.24c0.08,0.3,0.19,0.61,0.31,0.93c0.13,0.32,0.3,0.55,0.51,0.7c0.21,0.15,0.47,0.23,0.77,0.23
		c0.63,0,1.3-0.21,2-0.63c0.7-0.42,1.32-0.93,1.87-1.52c0.55-0.59,1.04-1.19,1.49-1.79s0.79-1.1,1.05-1.52l0.35-0.63v-9.63h3.96
		v17.5H737.41z"/>
	<path class="st0" d="M755.43,249.12c-0.72,0-1.77-0.03-3.13-0.09c-1.37-0.06-2.43-0.09-3.2-0.09v-2.07c0.75,0,1.8,0.04,3.17,0.12
		c1.36,0.08,2.42,0.12,3.17,0.12c1.21,0,2.22-0.21,3.01-0.65c0.79-0.43,1.19-0.95,1.19-1.56c0-0.87-0.82-1.62-2.45-2.25l-4.94-1.88
		c-1.24-0.47-2.19-1.13-2.87-2c-0.68-0.86-1.01-1.77-1.01-2.73c0-1.31,0.59-2.43,1.78-3.38c1.19-0.94,2.83-1.42,4.94-1.42
		c0.7,0,1.7,0.03,2.99,0.09c1.29,0.06,2.29,0.09,2.99,0.09v2.07c-3.01-0.19-5-0.28-5.98-0.28c-1.05,0-1.9,0.19-2.54,0.56
		c-0.64,0.37-0.96,0.82-0.96,1.33c0,0.8,0.7,1.48,2.09,2.02l4.97,1.89c1.38,0.51,2.42,1.2,3.12,2.05c0.7,0.86,1.05,1.78,1.05,2.75
		c0,1.42-0.68,2.66-2.03,3.71C759.43,248.6,757.65,249.12,755.43,249.12z"/>
	<path class="st0" d="M790.68,227.95v21h-4.2v-21c0-0.61,0.03-1.07,0.09-1.38c0.06-0.31,0.22-0.7,0.47-1.15
		c0.26-0.46,0.72-0.79,1.38-1s1.53-0.31,2.61-0.31C790.79,225.5,790.68,226.78,790.68,227.95z"/>
	<path class="st0" d="M803.91,231.45v3.99c2.4-2.78,4.89-4.17,7.46-4.17c0.82,0,1.53,0.09,2.15,0.28c0.62,0.19,1.11,0.49,1.47,0.91
		c0.36,0.42,0.65,0.83,0.88,1.23c0.22,0.4,0.37,0.96,0.46,1.7c0.08,0.74,0.13,1.34,0.16,1.8c0.02,0.47,0.03,1.13,0.03,2v9.76h-3.99
		v-9.94c0-0.58-0.01-1.04-0.02-1.38c-0.01-0.34-0.04-0.77-0.07-1.29c-0.04-0.53-0.09-0.94-0.18-1.24c-0.08-0.3-0.19-0.61-0.31-0.93
		c-0.13-0.32-0.3-0.55-0.51-0.7s-0.47-0.23-0.77-0.23c-0.63,0-1.29,0.21-2,0.63s-1.32,0.93-1.87,1.52
		c-0.55,0.59-1.04,1.19-1.49,1.79c-0.44,0.59-0.78,1.1-1.02,1.52l-0.39,0.63v9.63h-3.95v-17.5H803.91z"/>
	<path class="st0" d="M830.44,249.12c-0.72,0-1.77-0.03-3.13-0.09c-1.37-0.06-2.43-0.09-3.2-0.09v-2.07c0.75,0,1.8,0.04,3.17,0.12
		c1.36,0.08,2.42,0.12,3.17,0.12c1.21,0,2.22-0.21,3.01-0.65c0.79-0.43,1.19-0.95,1.19-1.56c0-0.87-0.82-1.62-2.45-2.25l-4.94-1.88
		c-1.24-0.47-2.19-1.13-2.87-2c-0.68-0.86-1.01-1.77-1.01-2.73c0-1.31,0.59-2.43,1.78-3.38c1.19-0.94,2.83-1.42,4.94-1.42
		c0.7,0,1.7,0.03,2.99,0.09c1.29,0.06,2.29,0.09,2.99,0.09v2.07c-3.01-0.19-5-0.28-5.98-0.28c-1.05,0-1.9,0.19-2.54,0.56
		c-0.64,0.37-0.96,0.82-0.96,1.33c0,0.8,0.7,1.48,2.09,2.02l4.97,1.89c1.38,0.51,2.42,1.2,3.12,2.05c0.7,0.86,1.05,1.78,1.05,2.75
		c0,1.42-0.68,2.66-2.03,3.71C834.44,248.6,832.65,249.12,830.44,249.12z"/>
	<path class="st0" d="M859.14,248.95h-7.7c-0.77,0-1.39-0.02-1.87-0.05c-0.48-0.04-0.9-0.16-1.26-0.38
		c-0.36-0.22-0.62-0.43-0.77-0.63s-0.28-0.59-0.38-1.19c-0.1-0.59-0.16-1.14-0.17-1.64s-0.02-1.3-0.02-2.4v-9.24h-3.85v-1.96h3.85
		v-5.25h3.99v5.25h7.35v1.96h-7.35v8.75c0,2.19,0.12,3.55,0.35,4.06c0.23,0.51,0.93,0.77,2.1,0.77h5.74V248.95z"/>
	<path class="st0" d="M865.96,224.45h3.99v3.43h-3.99V224.45z M865.96,231.45h3.99v17.5h-3.99V231.45z"/>
	<path class="st0" d="M892.81,248.95h-7.7c-0.77,0-1.39-0.02-1.87-0.05c-0.48-0.04-0.9-0.16-1.26-0.38
		c-0.36-0.22-0.62-0.43-0.77-0.63s-0.28-0.59-0.38-1.19c-0.1-0.59-0.16-1.14-0.17-1.64s-0.02-1.3-0.02-2.4v-9.24h-3.85v-1.96h3.85
		v-5.25h3.99v5.25h7.35v1.96h-7.35v8.75c0,2.19,0.12,3.55,0.35,4.06c0.23,0.51,0.93,0.77,2.1,0.77h5.74V248.95z"/>
	<path class="st0" d="M911.39,248.95v-3.99c-2.4,2.78-4.89,4.17-7.46,4.17c-0.82,0-1.53-0.09-2.15-0.28
		c-0.62-0.19-1.11-0.49-1.47-0.91c-0.36-0.42-0.65-0.83-0.88-1.23c-0.22-0.4-0.37-0.96-0.46-1.7c-0.08-0.74-0.13-1.34-0.16-1.8
		c-0.02-0.47-0.04-1.13-0.04-2v-9.76h3.99v9.94c0,0.58,0.01,1.04,0.02,1.38c0.01,0.34,0.04,0.77,0.07,1.29
		c0.04,0.53,0.09,0.94,0.17,1.24c0.08,0.3,0.19,0.61,0.32,0.93c0.13,0.32,0.3,0.55,0.51,0.7c0.21,0.15,0.47,0.23,0.77,0.23
		c0.63,0,1.29-0.21,2-0.63s1.32-0.93,1.87-1.52s1.04-1.19,1.49-1.79s0.79-1.1,1.05-1.52l0.35-0.63v-9.63h3.96v17.5H911.39z"/>
	<path class="st0" d="M937.5,248.95h-7.7c-0.77,0-1.39-0.02-1.87-0.05c-0.48-0.04-0.9-0.16-1.26-0.38
		c-0.36-0.22-0.62-0.43-0.77-0.63s-0.28-0.59-0.38-1.19c-0.1-0.59-0.16-1.14-0.17-1.64s-0.02-1.3-0.02-2.4v-9.24h-3.85v-1.96h3.85
		v-5.25h3.99v5.25h7.35v1.96h-7.35v8.75c0,2.19,0.12,3.55,0.35,4.06c0.23,0.51,0.93,0.77,2.1,0.77h5.74V248.95z"/>
	<path class="st0" d="M944.33,224.45h3.99v3.43h-3.99V224.45z M944.33,231.45h3.99v17.5h-3.99V231.45z"/>
	<path class="st0" d="M958.39,246.6c-1.82-1.73-2.73-3.86-2.73-6.41c0-2.54,0.91-4.68,2.73-6.41c1.82-1.73,4.08-2.59,6.79-2.59
		s4.97,0.86,6.79,2.59c1.82,1.73,2.73,3.86,2.73,6.41c0,2.54-0.91,4.68-2.73,6.41s-4.08,2.59-6.79,2.59S960.21,248.33,958.39,246.6z
		 M961.4,235c-1,1.41-1.5,3.14-1.5,5.2c0,2.05,0.5,3.79,1.5,5.2c1,1.41,2.26,2.12,3.78,2.12s2.78-0.71,3.78-2.12
		c1-1.41,1.5-3.14,1.5-5.2c0-2.05-0.5-3.79-1.5-5.2c-1-1.41-2.26-2.12-3.78-2.12S962.41,233.59,961.4,235z"/>
	<path class="st0" d="M985.31,231.45v3.99c2.4-2.78,4.89-4.17,7.46-4.17c0.82,0,1.53,0.09,2.15,0.28s1.11,0.49,1.47,0.91
		s0.65,0.83,0.88,1.23s0.37,0.96,0.46,1.7s0.13,1.34,0.16,1.8c0.02,0.47,0.03,1.13,0.03,2v9.76h-3.99v-9.94
		c0-0.58-0.01-1.04-0.02-1.38c-0.01-0.34-0.04-0.77-0.07-1.29c-0.04-0.53-0.09-0.94-0.17-1.24c-0.08-0.3-0.19-0.61-0.32-0.93
		c-0.13-0.32-0.3-0.55-0.51-0.7s-0.47-0.23-0.77-0.23c-0.63,0-1.29,0.21-2,0.63s-1.32,0.93-1.87,1.52
		c-0.55,0.59-1.04,1.19-1.49,1.79c-0.44,0.59-0.78,1.1-1.02,1.52l-0.38,0.63v9.63h-3.96v-17.5H985.31z"/>
	<path class="st0" d="M1036.83,246.08l-2.85-6.23h-8.67l-2.83,6.22c-0.25,0.56-0.45,0.97-0.59,1.21s-0.37,0.56-0.69,0.95
		s-0.71,0.66-1.16,0.83c-0.45,0.16-0.99,0.25-1.62,0.25c0.68-1.07,1.26-2.15,1.75-3.22l10.64-23.38l10.64,23.38
		c0.21,0.47,0.46,0.97,0.75,1.5c0.29,0.54,0.53,0.96,0.72,1.26l0.28,0.46c-1.17,0-2.14-0.08-2.92-0.24
		c-0.78-0.16-1.39-0.43-1.83-0.81c-0.44-0.37-0.76-0.7-0.94-0.96C1037.31,247.02,1037.09,246.61,1036.83,246.08z M1029.64,230.35
		l-3.37,7.4h6.76L1029.64,230.35z"/>
	<path class="st0" d="M1054.36,230.4v1.05h7.42v1.96h-7.42v15.54h-3.96v-15.54h-3.53v-1.96h3.53v-1.05c0-1,0.02-1.82,0.07-2.45
		s0.16-1.18,0.35-1.64s0.37-0.82,0.56-1.05c0.19-0.23,0.51-0.41,0.98-0.54s0.91-0.2,1.33-0.23s1.04-0.04,1.86-0.04h6.23v2h-5.6
		c-0.79,0-1.29,0.2-1.5,0.59C1054.47,227.44,1054.36,228.56,1054.36,230.4z"/>
	<path class="st0" d="M1072.95,230.4v1.05h7.42v1.96h-7.42v15.54h-3.96v-15.54h-3.53v-1.96h3.53v-1.05c0-1,0.02-1.82,0.07-2.45
		s0.16-1.18,0.35-1.64s0.37-0.82,0.56-1.05c0.19-0.23,0.51-0.41,0.98-0.54s0.91-0.2,1.33-0.23s1.04-0.04,1.86-0.04h6.23v2h-5.6
		c-0.79,0-1.29,0.2-1.5,0.59C1073.05,227.44,1072.95,228.56,1072.95,230.4z"/>
	<path class="st0" d="M1086.49,224.45h3.99v3.43h-3.99V224.45z M1086.49,231.45h3.99v17.5h-3.99V231.45z"/>
	<path class="st0" d="M1103.75,222.7v26.25h-3.99V222.7H1103.75z"/>
	<path class="st0" d="M1113.02,224.45h3.99v3.43h-3.99V224.45z M1113.02,231.45h3.99v17.5h-3.99V231.45z"/>
	<path class="st0" d="M1138.71,248.95v-8.71c-3.99-0.35-6.01-0.53-6.06-0.53c-1,0-1.85,0.38-2.55,1.14
		c-0.7,0.76-1.05,1.62-1.05,2.57c0,1.1,0.36,2.03,1.07,2.8c0.71,0.77,1.63,1.16,2.75,1.16c0.56,0,1.94-0.12,4.13-0.35l0.11,1.92
		c-2.57,0.21-4.22,0.32-4.97,0.32c-2.08,0-3.8-0.55-5.18-1.65s-2.06-2.44-2.06-4.03c0-1.4,0.67-2.71,2.01-3.94
		c1.34-1.22,3.05-1.84,5.13-1.84c0.61,0,2.83,0.21,6.69,0.63v-1.05c0-1.1-0.42-2.06-1.26-2.89s-1.87-1.24-3.08-1.24
		c-0.54,0-1.83,0.05-3.87,0.14c-2.04,0.09-3.44,0.15-4.18,0.17v-2.13c0.68-0.02,1.62-0.05,2.83-0.09c1.21-0.03,2.32-0.06,3.33-0.09
		c1-0.02,1.95-0.04,2.83-0.04c2.12,0,3.88,0.5,5.29,1.5c1.4,1,2.1,2.32,2.1,3.96v12.25H1138.71z"/>
	<path class="st0" d="M1164.51,248.95h-7.7c-0.77,0-1.39-0.02-1.87-0.05c-0.48-0.04-0.9-0.16-1.26-0.38
		c-0.36-0.22-0.62-0.43-0.77-0.63s-0.28-0.59-0.38-1.19c-0.1-0.59-0.16-1.14-0.17-1.64s-0.02-1.3-0.02-2.4v-9.24h-3.85v-1.96h3.85
		v-5.25h3.99v5.25h7.35v1.96h-7.35v8.75c0,2.19,0.12,3.55,0.35,4.06c0.23,0.51,0.93,0.77,2.1,0.77h5.74V248.95z"/>
	<path class="st0" d="M1185.51,244.05l1.5,1.58c-1.87,2.33-4.48,3.5-7.84,3.5c-2.57,0-4.84-0.87-6.81-2.61
		c-1.97-1.74-2.96-3.82-2.96-6.25c0-2.5,0.9-4.61,2.71-6.35c1.81-1.74,4.01-2.61,6.6-2.61c0.72,0,1.78,0.02,3.18,0.07
		c1.4,0.05,2.7,0.07,3.88,0.07v2.1c-3.94-0.26-6.3-0.38-7.07-0.38c-1.28,0-2.38,0.49-3.29,1.47c-0.91,0.98-1.49,2.25-1.75,3.82
		h10.36v2.1h-10.5c0.05,1.96,0.61,3.58,1.7,4.87c1.08,1.28,2.4,1.92,3.94,1.92C1181.5,247.34,1183.62,246.24,1185.51,244.05z"/>
	<path class="st0" d="M1205.7,222.7h3.96v26.25h-3.96v-15.54c-0.3,0-0.74-0.01-1.31-0.04c-0.57-0.02-1.08-0.04-1.54-0.05
		c-0.46-0.01-0.86-0.02-1.21-0.02c-1.66,0-2.96,0.62-3.9,1.85c-0.95,1.24-1.42,2.86-1.42,4.87c0,2.03,0.48,3.72,1.45,5.08
		c0.97,1.35,2.27,2.03,3.9,2.03h2.55v1.82h-3.04c-2.52,0-4.64-0.86-6.35-2.57s-2.57-3.83-2.57-6.35c0-2.5,0.86-4.56,2.59-6.2
		c1.73-1.63,3.86-2.45,6.41-2.45c1,0,2.48,0.02,4.44,0.07V222.7z"/>
	<path class="st0" d="M1247.04,248.95h-7.7c-0.77,0-1.39-0.02-1.87-0.05c-0.48-0.04-0.9-0.16-1.26-0.38s-0.62-0.43-0.77-0.63
		c-0.15-0.2-0.28-0.59-0.38-1.19c-0.11-0.59-0.16-1.14-0.18-1.64s-0.02-1.3-0.02-2.4v-9.24h-3.85v-1.96h3.85v-5.25h3.99v5.25h7.35
		v1.96h-7.35v8.75c0,2.19,0.12,3.55,0.35,4.06c0.23,0.51,0.93,0.77,2.1,0.77h5.74V248.95z"/>
	<path class="st0" d="M1254.67,246.6c-1.82-1.73-2.73-3.86-2.73-6.41c0-2.54,0.91-4.68,2.73-6.41c1.82-1.73,4.08-2.59,6.79-2.59
		s4.97,0.86,6.79,2.59c1.82,1.73,2.73,3.86,2.73,6.41c0,2.54-0.91,4.68-2.73,6.41s-4.08,2.59-6.79,2.59
		S1256.49,248.33,1254.67,246.6z M1257.67,235c-1,1.41-1.5,3.14-1.5,5.2c0,2.05,0.5,3.79,1.5,5.2c1,1.41,2.26,2.12,3.78,2.12
		s2.78-0.71,3.78-2.12c1-1.41,1.5-3.14,1.5-5.2c0-2.05-0.5-3.79-1.5-5.2c-1-1.41-2.26-2.12-3.78-2.12S1258.68,233.59,1257.67,235z"
		/>
	<path class="st0" d="M1308.81,246.08l-2.85-6.23h-8.67l-2.83,6.22c-0.25,0.56-0.45,0.97-0.59,1.21c-0.14,0.25-0.37,0.56-0.69,0.95
		s-0.71,0.66-1.16,0.83c-0.45,0.16-0.99,0.25-1.62,0.25c0.68-1.07,1.26-2.15,1.75-3.22l10.64-23.38l10.64,23.38
		c0.21,0.47,0.46,0.97,0.75,1.5c0.29,0.54,0.53,0.96,0.72,1.26l0.28,0.46c-1.17,0-2.14-0.08-2.92-0.24
		c-0.78-0.16-1.39-0.43-1.83-0.81c-0.44-0.37-0.76-0.7-0.95-0.96C1309.29,247.02,1309.07,246.61,1308.81,246.08z M1301.62,230.35
		l-3.37,7.4h6.75L1301.62,230.35z"/>
	<path class="st0" d="M1324.56,231.45v3.99c2.4-2.78,4.89-4.17,7.46-4.17c0.82,0,1.53,0.09,2.15,0.28s1.11,0.49,1.47,0.91
		s0.65,0.83,0.88,1.23s0.37,0.96,0.46,1.7s0.13,1.34,0.16,1.8c0.02,0.47,0.03,1.13,0.03,2v9.76h-3.99v-9.94
		c0-0.58-0.01-1.04-0.02-1.38c-0.01-0.34-0.04-0.77-0.07-1.29c-0.04-0.53-0.09-0.94-0.17-1.24c-0.08-0.3-0.19-0.61-0.32-0.93
		c-0.13-0.32-0.3-0.55-0.51-0.7s-0.47-0.23-0.77-0.23c-0.63,0-1.29,0.21-2,0.63s-1.32,0.93-1.87,1.52
		c-0.55,0.59-1.04,1.19-1.49,1.79c-0.44,0.59-0.78,1.1-1.02,1.52l-0.38,0.63v9.63h-3.96v-17.5H1324.56z"/>
	<path class="st0" d="M1348.85,231.45v3.99c2.4-2.78,4.89-4.17,7.46-4.17c0.82,0,1.53,0.09,2.15,0.28c0.62,0.19,1.11,0.49,1.47,0.91
		c0.36,0.42,0.65,0.83,0.88,1.23s0.37,0.96,0.46,1.7c0.08,0.74,0.13,1.34,0.16,1.8s0.04,1.13,0.04,2v9.76h-3.99v-9.94
		c0-0.58-0.01-1.04-0.02-1.38s-0.03-0.77-0.07-1.29c-0.04-0.53-0.09-0.94-0.17-1.24c-0.08-0.3-0.19-0.61-0.32-0.93
		c-0.13-0.32-0.3-0.55-0.51-0.7s-0.47-0.23-0.77-0.23c-0.63,0-1.29,0.21-2,0.63s-1.32,0.93-1.87,1.52
		c-0.55,0.59-1.04,1.19-1.49,1.79s-0.78,1.1-1.01,1.52l-0.38,0.63v9.63h-3.96v-17.5H1348.85z"/>
	<path class="st0" d="M1382.31,248.95v-8.71c-3.99-0.35-6.01-0.53-6.06-0.53c-1,0-1.85,0.38-2.55,1.14
		c-0.7,0.76-1.05,1.62-1.05,2.57c0,1.1,0.36,2.03,1.07,2.8c0.71,0.77,1.63,1.16,2.75,1.16c0.56,0,1.94-0.12,4.13-0.35l0.1,1.92
		c-2.57,0.21-4.22,0.32-4.97,0.32c-2.08,0-3.8-0.55-5.18-1.65c-1.38-1.1-2.07-2.44-2.07-4.03c0-1.4,0.67-2.71,2.01-3.94
		c1.34-1.22,3.05-1.84,5.13-1.84c0.61,0,2.83,0.21,6.69,0.63v-1.05c0-1.1-0.42-2.06-1.26-2.89c-0.84-0.83-1.87-1.24-3.08-1.24
		c-0.54,0-1.83,0.05-3.87,0.14c-2.04,0.09-3.44,0.15-4.18,0.17v-2.13c0.68-0.02,1.62-0.05,2.83-0.09c1.21-0.03,2.32-0.06,3.33-0.09
		s1.95-0.04,2.83-0.04c2.12,0,3.89,0.5,5.29,1.5c1.4,1,2.1,2.32,2.1,3.96v12.25H1382.31z"/>
	<path class="st0" d="M1409.05,224.1c1.07,0,1.94,0.1,2.61,0.31s1.13,0.54,1.38,1c0.26,0.46,0.41,0.84,0.47,1.15
		c0.06,0.32,0.09,0.78,0.09,1.38v14c0,1.47,0.53,2.75,1.58,3.83c1.05,1.09,2.34,1.63,3.88,1.63c1.63,0,3.15-0.55,4.55-1.66
		c1.4-1.11,2.1-2.37,2.1-3.8v-14c0-0.47,0-0.83,0.02-1.08c0.01-0.26,0.06-0.59,0.14-1c0.08-0.41,0.21-0.72,0.38-0.93
		s0.43-0.4,0.75-0.58c0.33-0.17,0.73-0.26,1.22-0.26c-0.23,1.4-0.35,2.68-0.35,3.85v14c0,2.03-0.91,3.76-2.71,5.2
		c-1.81,1.44-3.98,2.15-6.53,2.15c-2.54,0-4.72-0.72-6.53-2.15c-1.81-1.43-2.71-3.17-2.71-5.2v-14c0-0.51-0.03-1.09-0.09-1.73
		c-0.06-0.64-0.12-1.16-0.19-1.56L1409.05,224.1z"/>
	<path class="st0" d="M1440.06,231.45v3.99c2.4-2.78,4.89-4.17,7.46-4.17c0.82,0,1.53,0.09,2.15,0.28c0.62,0.19,1.11,0.49,1.47,0.91
		c0.36,0.42,0.65,0.83,0.88,1.23s0.37,0.96,0.46,1.7c0.08,0.74,0.13,1.34,0.16,1.8s0.04,1.13,0.04,2v9.76h-3.99v-9.94
		c0-0.58-0.01-1.04-0.02-1.38s-0.03-0.77-0.07-1.29c-0.04-0.53-0.09-0.94-0.17-1.24c-0.08-0.3-0.19-0.61-0.32-0.93
		c-0.13-0.32-0.3-0.55-0.51-0.7s-0.47-0.23-0.77-0.23c-0.63,0-1.29,0.21-2,0.63s-1.32,0.93-1.87,1.52
		c-0.55,0.59-1.04,1.19-1.49,1.79s-0.78,1.1-1.01,1.52l-0.38,0.63v9.63h-3.96v-17.5H1440.06z"/>
	<path class="st0" d="M1461.09,224.45h3.99v3.43h-3.99V224.45z M1461.09,231.45h3.99v17.5h-3.99V231.45z"/>
	<path class="st0" d="M1476.63,231.45l6.07,11.7l6.07-11.7h2.38l-9.63,18.55l-9.63-18.55H1476.63z"/>
	<path class="st0" d="M1512.16,244.05l1.5,1.58c-1.87,2.33-4.48,3.5-7.84,3.5c-2.57,0-4.84-0.87-6.81-2.61s-2.96-3.82-2.96-6.25
		c0-2.5,0.9-4.61,2.71-6.35c1.81-1.74,4.01-2.61,6.6-2.61c0.72,0,1.79,0.02,3.18,0.07c1.4,0.05,2.7,0.07,3.89,0.07v2.1
		c-3.94-0.26-6.3-0.38-7.07-0.38c-1.28,0-2.38,0.49-3.29,1.47c-0.91,0.98-1.49,2.25-1.75,3.82h10.36v2.1h-10.5
		c0.05,1.96,0.61,3.58,1.7,4.87s2.4,1.92,3.94,1.92C1508.16,247.34,1510.27,246.24,1512.16,244.05z"/>
	<path class="st0" d="M1536.62,236.35h-3.95c0-0.91-0.15-1.66-0.46-2.24c-0.3-0.58-0.76-0.88-1.37-0.88c-0.63,0-1.29,0.21-2,0.63
		s-1.32,0.93-1.87,1.52c-0.55,0.59-1.04,1.19-1.49,1.79s-0.78,1.1-1.01,1.52l-0.38,0.63v9.63h-3.96v-17.5h3.96v3.99
		c2.4-2.78,4.89-4.17,7.46-4.17C1534.93,231.27,1536.62,232.97,1536.62,236.35z"/>
	<path class="st0" d="M1548.59,249.12c-0.72,0-1.77-0.03-3.13-0.09c-1.37-0.06-2.43-0.09-3.2-0.09v-2.07c0.75,0,1.8,0.04,3.17,0.12
		s2.42,0.12,3.17,0.12c1.21,0,2.22-0.21,3.01-0.65c0.79-0.43,1.19-0.95,1.19-1.56c0-0.87-0.82-1.62-2.45-2.25l-4.94-1.88
		c-1.24-0.47-2.19-1.13-2.87-2c-0.68-0.86-1.01-1.77-1.01-2.73c0-1.31,0.59-2.43,1.79-3.38c1.19-0.94,2.83-1.42,4.93-1.42
		c0.7,0,1.7,0.03,2.99,0.09c1.29,0.06,2.29,0.09,2.99,0.09v2.07c-3.01-0.19-5-0.28-5.99-0.28c-1.05,0-1.9,0.19-2.54,0.56
		c-0.64,0.37-0.96,0.82-0.96,1.33c0,0.8,0.7,1.48,2.09,2.02l4.97,1.89c1.38,0.51,2.42,1.2,3.12,2.05s1.05,1.78,1.05,2.75
		c0,1.42-0.68,2.66-2.03,3.71C1552.59,248.6,1550.81,249.12,1548.59,249.12z"/>
	<path class="st0" d="M1563.71,224.45h3.99v3.43h-3.99V224.45z M1563.71,231.45h3.99v17.5h-3.99V231.45z"/>
	<path class="st0" d="M1590.56,248.95h-7.7c-0.77,0-1.39-0.02-1.87-0.05s-0.9-0.16-1.26-0.38c-0.36-0.22-0.62-0.43-0.77-0.63
		c-0.15-0.2-0.28-0.59-0.39-1.19c-0.1-0.59-0.16-1.14-0.17-1.64s-0.02-1.3-0.02-2.4v-9.24h-3.85v-1.96h3.85v-5.25h3.99v5.25h7.35
		v1.96h-7.35v8.75c0,2.19,0.12,3.55,0.35,4.06c0.23,0.51,0.93,0.77,2.1,0.77h5.74V248.95z"/>
	<path class="st0" d="M1609.14,248.95v-3.99c-2.4,2.78-4.89,4.17-7.46,4.17c-0.82,0-1.53-0.09-2.15-0.28
		c-0.62-0.19-1.11-0.49-1.47-0.91c-0.36-0.42-0.65-0.83-0.88-1.23c-0.22-0.4-0.37-0.96-0.45-1.7c-0.08-0.74-0.13-1.34-0.16-1.8
		c-0.02-0.47-0.04-1.13-0.04-2v-9.76h3.99v9.94c0,0.58,0.01,1.04,0.02,1.38c0.01,0.34,0.04,0.77,0.07,1.29
		c0.04,0.53,0.09,0.94,0.17,1.24c0.08,0.3,0.19,0.61,0.32,0.93c0.13,0.32,0.3,0.55,0.51,0.7c0.21,0.15,0.47,0.23,0.77,0.23
		c0.63,0,1.29-0.21,2-0.63c0.7-0.42,1.32-0.93,1.87-1.52c0.55-0.59,1.04-1.19,1.49-1.79s0.79-1.1,1.05-1.52l0.35-0.63v-9.63h3.96
		v17.5c0,0.96-0.14,1.83-0.42,2.63c-0.28,0.79-0.73,1.53-1.35,2.21c-0.62,0.68-1.51,1.21-2.68,1.59c-1.17,0.38-2.57,0.58-4.2,0.58
		h-7.38v-1.86h7.38c0.98,0,1.8-0.15,2.45-0.44s1.13-0.7,1.44-1.22c0.3-0.53,0.51-1.06,0.63-1.59
		C1609.08,250.3,1609.14,249.67,1609.14,248.95z"/>
	<path class="st0" d="M1621.32,245.45h3.5l-2.27,7.35h-1.23V245.45z"/>
	<path class="st0" d="M493.04,288.08l-2.85-6.23h-8.67l-2.83,6.22c-0.25,0.56-0.45,0.97-0.59,1.21c-0.14,0.25-0.37,0.56-0.69,0.95
		s-0.71,0.66-1.16,0.83s-0.99,0.25-1.62,0.25c0.68-1.07,1.26-2.15,1.75-3.22l10.64-23.38l10.64,23.38c0.21,0.47,0.46,0.97,0.75,1.5
		c0.29,0.54,0.53,0.96,0.72,1.26l0.28,0.46c-1.17,0-2.14-0.08-2.92-0.24c-0.78-0.16-1.39-0.43-1.83-0.81
		c-0.44-0.37-0.76-0.7-0.94-0.96C493.52,289.02,493.3,288.61,493.04,288.08z M485.85,272.35l-3.37,7.4h6.76L485.85,272.35z"/>
	<path class="st0" d="M504.83,297.95v-24.5c0.93,0,2.33-0.01,4.2-0.04c1.87-0.02,3.27-0.04,4.2-0.04c2.54,0,4.68,0.82,6.4,2.45
		c1.73,1.63,2.59,3.7,2.59,6.2c0,2.52-0.86,4.64-2.57,6.35s-3.83,2.57-6.35,2.57h-3.04v-1.82h2.56c1.63,0,2.93-0.68,3.9-2.03
		c0.97-1.35,1.45-3.04,1.45-5.08c0-2.01-0.47-3.63-1.42-4.87c-0.95-1.24-2.25-1.85-3.9-1.85c-0.35,0-0.75,0.01-1.21,0.02
		c-0.45,0.01-0.97,0.03-1.54,0.05c-0.57,0.02-1.01,0.04-1.31,0.04v22.54H504.83z"/>
	<path class="st0" d="M528.88,297.95v-24.5c0.93,0,2.33-0.01,4.2-0.04c1.87-0.02,3.27-0.04,4.2-0.04c2.54,0,4.68,0.82,6.4,2.45
		c1.73,1.63,2.59,3.7,2.59,6.2c0,2.52-0.86,4.64-2.57,6.35s-3.83,2.57-6.35,2.57h-3.04v-1.82h2.56c1.63,0,2.93-0.68,3.9-2.03
		c0.97-1.35,1.45-3.04,1.45-5.08c0-2.01-0.47-3.63-1.42-4.87c-0.95-1.24-2.25-1.85-3.9-1.85c-0.35,0-0.75,0.01-1.21,0.02
		c-0.45,0.01-0.97,0.03-1.54,0.05c-0.57,0.02-1.01,0.04-1.31,0.04v22.54H528.88z"/>
	<path class="st0" d="M569.41,278.35h-3.96c0-0.91-0.15-1.66-0.46-2.24s-0.76-0.88-1.36-0.88c-0.63,0-1.29,0.21-2,0.63
		s-1.32,0.93-1.87,1.52c-0.55,0.59-1.04,1.19-1.49,1.79c-0.44,0.59-0.78,1.1-1.02,1.52l-0.39,0.63v9.63h-3.95v-17.5h3.95v3.99
		c2.4-2.78,4.89-4.17,7.46-4.17C567.72,273.27,569.41,274.97,569.41,278.35z"/>
	<path class="st0" d="M576.69,288.6c-1.82-1.73-2.73-3.86-2.73-6.41c0-2.54,0.91-4.68,2.73-6.41c1.82-1.73,4.08-2.59,6.79-2.59
		c2.71,0,4.97,0.86,6.79,2.59c1.82,1.73,2.73,3.86,2.73,6.41c0,2.54-0.91,4.68-2.73,6.41c-1.82,1.73-4.08,2.59-6.79,2.59
		C580.77,291.19,578.51,290.33,576.69,288.6z M579.7,277c-1,1.41-1.5,3.14-1.5,5.2c0,2.05,0.5,3.79,1.5,5.2
		c1,1.41,2.26,2.12,3.78,2.12c1.52,0,2.78-0.71,3.78-2.12c1-1.41,1.5-3.14,1.5-5.2c0-2.05-0.5-3.79-1.5-5.2
		c-1-1.41-2.26-2.12-3.78-2.12C581.96,274.88,580.7,275.59,579.7,277z"/>
	<path class="st0" d="M602.62,273.45l6.07,11.7l6.07-11.7h2.38L607.52,292l-9.63-18.55H602.62z"/>
	<path class="st0" d="M638.15,286.05l1.5,1.58c-1.87,2.33-4.48,3.5-7.84,3.5c-2.57,0-4.84-0.87-6.81-2.61
		c-1.97-1.74-2.96-3.82-2.96-6.25c0-2.5,0.9-4.61,2.71-6.35c1.81-1.74,4.01-2.61,6.6-2.61c0.72,0,1.78,0.02,3.19,0.07
		c1.4,0.05,2.69,0.07,3.88,0.07v2.1c-3.94-0.26-6.3-0.38-7.07-0.38c-1.28,0-2.38,0.49-3.29,1.47c-0.91,0.98-1.49,2.25-1.75,3.82
		h10.36v2.1h-10.5c0.05,1.96,0.61,3.58,1.7,4.87c1.08,1.28,2.4,1.92,3.94,1.92C634.15,289.34,636.26,288.24,638.15,286.05z"/>
	<path class="st0" d="M658.34,264.7h3.96v26.25h-3.96v-15.54c-0.3,0-0.74-0.01-1.31-0.04c-0.57-0.02-1.08-0.04-1.54-0.05
		c-0.46-0.01-0.86-0.02-1.21-0.02c-1.66,0-2.96,0.62-3.9,1.85c-0.95,1.24-1.42,2.86-1.42,4.87c0,2.03,0.48,3.72,1.45,5.08
		s2.27,2.03,3.9,2.03h2.55v1.82h-3.04c-2.52,0-4.64-0.86-6.35-2.57c-1.71-1.71-2.57-3.83-2.57-6.35c0-2.5,0.86-4.56,2.59-6.2
		c1.73-1.63,3.86-2.45,6.41-2.45c1,0,2.48,0.02,4.44,0.07V264.7z"/>
	<path class="st0" d="M685.4,264.7h3.95v8.75c1.96-0.05,3.44-0.07,4.45-0.07c2.54,0,4.68,0.82,6.4,2.45c1.73,1.63,2.59,3.7,2.59,6.2
		c0,2.52-0.86,4.64-2.57,6.35s-3.83,2.57-6.35,2.57h-3.04v-1.82h2.56c1.63,0,2.93-0.68,3.9-2.03c0.97-1.35,1.45-3.04,1.45-5.08
		c0-2.01-0.47-3.63-1.42-4.87c-0.95-1.24-2.25-1.85-3.9-1.85c-0.35,0-0.75,0.01-1.21,0.02c-0.45,0.01-0.97,0.03-1.54,0.05
		c-0.57,0.02-1.01,0.04-1.31,0.04v15.54h-3.95V264.7z"/>
	<path class="st0" d="M722.08,290.95v-3.99c-2.4,2.78-4.89,4.17-7.46,4.17c-0.82,0-1.53-0.09-2.15-0.28
		c-0.62-0.19-1.11-0.49-1.47-0.91c-0.36-0.42-0.65-0.83-0.88-1.23c-0.22-0.4-0.37-0.96-0.46-1.7c-0.08-0.74-0.13-1.34-0.16-1.8
		c-0.02-0.47-0.04-1.13-0.04-2v-9.76h3.99v9.94c0,0.58,0.01,1.04,0.02,1.38c0.01,0.34,0.04,0.77,0.07,1.29
		c0.03,0.53,0.09,0.94,0.17,1.24c0.08,0.3,0.19,0.61,0.31,0.93c0.13,0.32,0.3,0.55,0.51,0.7c0.21,0.15,0.47,0.23,0.77,0.23
		c0.63,0,1.3-0.21,2-0.63c0.7-0.42,1.32-0.93,1.87-1.52c0.55-0.59,1.04-1.19,1.49-1.79s0.79-1.1,1.05-1.52l0.35-0.63v-9.63h3.96
		v17.5c0,0.96-0.14,1.83-0.42,2.63c-0.28,0.79-0.73,1.53-1.35,2.21c-0.62,0.68-1.51,1.21-2.68,1.59c-1.17,0.38-2.57,0.58-4.2,0.58
		H710v-1.86h7.39c0.98,0,1.8-0.15,2.45-0.44c0.65-0.29,1.13-0.7,1.44-1.22c0.3-0.53,0.51-1.06,0.63-1.59
		S722.08,291.67,722.08,290.95z"/>
	<path class="st0" d="M765.1,288.08l-2.85-6.23h-8.67l-2.83,6.22c-0.25,0.56-0.45,0.97-0.59,1.21c-0.14,0.25-0.37,0.56-0.69,0.95
		s-0.71,0.66-1.16,0.83s-0.99,0.25-1.62,0.25c0.68-1.07,1.26-2.15,1.75-3.22l10.64-23.38l10.64,23.38c0.21,0.47,0.46,0.97,0.75,1.5
		c0.29,0.54,0.53,0.96,0.72,1.26l0.28,0.46c-1.17,0-2.14-0.08-2.92-0.24c-0.78-0.16-1.39-0.43-1.83-0.81
		c-0.44-0.37-0.76-0.7-0.94-0.96C765.57,289.02,765.35,288.61,765.1,288.08z M757.9,272.35l-3.37,7.4h6.76L757.9,272.35z"/>
	<path class="st0" d="M782.49,269.95v21h-4.2v-21c0-0.61,0.03-1.07,0.09-1.38c0.06-0.31,0.22-0.7,0.47-1.15
		c0.26-0.46,0.72-0.79,1.38-1s1.53-0.31,2.61-0.31C782.6,267.5,782.49,268.78,782.49,269.95z"/>
	<path class="st0" d="M810.77,285.21l2.55,1.26c-2.38,3.1-5.7,4.66-9.97,4.66c-3.48,0-6.48-1.21-9.01-3.62
		c-2.53-2.42-3.8-5.35-3.8-8.8c0-3.38,1.16-6.25,3.48-8.59c2.32-2.34,5.19-3.62,8.59-3.83c0.44-0.02,1.23-0.04,2.35-0.04l7.35,0.21
		c0,0.14-0.02,0.3-0.05,0.49c-0.03,0.19-0.11,0.45-0.23,0.79c-0.12,0.34-0.35,0.62-0.7,0.84c-0.35,0.22-0.78,0.33-1.29,0.33
		c-2.08-0.51-4.31-0.77-6.69-0.77c-2.47,0-4.5,1.02-6.07,3.06c-1.57,2.04-2.36,4.54-2.36,7.51c0,2.89,0.83,5.37,2.5,7.42
		c1.67,2.05,3.65,3.08,5.93,3.08C806.17,289.2,808.64,287.87,810.77,285.21z"/>
	<path class="st0" d="M818.92,268.62c-0.51,0-0.92-0.19-1.21-0.56c-0.29-0.37-0.46-0.69-0.49-0.95c-0.04-0.26-0.05-0.48-0.05-0.67
		h23.45c0,0.19-0.02,0.41-0.05,0.67s-0.2,0.57-0.49,0.95c-0.29,0.37-0.69,0.56-1.21,0.56c-0.54,0-1.42-0.02-2.64-0.07
		c-1.23-0.05-2.32-0.07-3.27-0.07h-1.79v22.47h-4.55v-22.47h-1.79c-0.96,0-2.05,0.02-3.27,0.07
		C820.34,268.6,819.46,268.62,818.92,268.62z"/>
	<path class="st0" d="M850.6,279.75v9.1h9.45c0.72,0,1.29,0.17,1.7,0.52c0.41,0.35,0.64,0.7,0.68,1.05l0.07,0.53h-16.45
		c0.23-1.14,0.35-2.3,0.35-3.46v-17.54c0-0.51-0.03-1.06-0.09-1.64s-0.12-1.04-0.19-1.37l-0.07-0.49h16.45
		c0,0.05-0.01,0.12-0.02,0.23c-0.01,0.1-0.06,0.27-0.14,0.51s-0.2,0.44-0.37,0.63c-0.16,0.19-0.41,0.36-0.74,0.51
		c-0.33,0.15-0.72,0.23-1.19,0.23h-9.45v9.1h8.75v2.1H850.6z"/>
	<path class="st0" d="M870.02,287.45h3.5l-2.28,7.35h-1.22V287.45z"/>
	<path class="st0" d="M912.93,288.08l-2.85-6.23h-8.67l-2.83,6.22c-0.25,0.56-0.45,0.97-0.59,1.21s-0.37,0.56-0.69,0.95
		s-0.71,0.66-1.16,0.83c-0.45,0.16-0.99,0.25-1.62,0.25c0.68-1.07,1.26-2.15,1.75-3.22l10.64-23.38l10.64,23.38
		c0.21,0.47,0.46,0.97,0.75,1.5c0.29,0.54,0.53,0.96,0.72,1.26l0.28,0.46c-1.17,0-2.14-0.08-2.92-0.24
		c-0.78-0.16-1.39-0.43-1.83-0.81c-0.44-0.37-0.76-0.7-0.94-0.96C913.41,289.02,913.19,288.61,912.93,288.08z M905.74,272.35
		l-3.37,7.4h6.76L905.74,272.35z"/>
	<path class="st0" d="M939.25,286.05l1.5,1.58c-0.98,1.21-2.07,2.1-3.25,2.66c-1.19,0.56-2.66,0.84-4.41,0.84
		c-2.57,0-4.81-0.87-6.72-2.61c-1.91-1.74-2.87-3.82-2.87-6.25c0-2.5,0.88-4.61,2.64-6.35c1.76-1.74,3.92-2.61,6.49-2.61
		c0.72,0,1.79,0.02,3.18,0.07c1.4,0.05,2.64,0.07,3.71,0.07v2.1c-0.54-0.05-1.25-0.1-2.15-0.17c-0.9-0.07-1.69-0.12-2.36-0.16
		s-1.47-0.05-2.38-0.05c-1.49,0-2.7,0.67-3.62,2.01s-1.38,3.04-1.38,5.09c0,2.03,0.52,3.72,1.56,5.06c1.04,1.34,2.34,2.01,3.9,2.01
		C935.31,289.34,937.36,288.24,939.25,286.05z"/>
	<path class="st0" d="M961.75,286.05l1.5,1.58c-0.98,1.21-2.07,2.1-3.25,2.66c-1.19,0.56-2.66,0.84-4.41,0.84
		c-2.57,0-4.81-0.87-6.72-2.61c-1.91-1.74-2.87-3.82-2.87-6.25c0-2.5,0.88-4.61,2.64-6.35c1.76-1.74,3.92-2.61,6.49-2.61
		c0.72,0,1.79,0.02,3.18,0.07c1.4,0.05,2.64,0.07,3.71,0.07v2.1c-0.54-0.05-1.25-0.1-2.15-0.17c-0.9-0.07-1.69-0.12-2.36-0.16
		s-1.47-0.05-2.38-0.05c-1.49,0-2.7,0.67-3.62,2.01s-1.38,3.04-1.38,5.09c0,2.03,0.52,3.72,1.56,5.06c1.04,1.34,2.34,2.01,3.9,2.01
		C957.81,289.34,959.86,288.24,961.75,286.05z"/>
	<path class="st0" d="M986.22,278.35h-3.96c0-0.91-0.15-1.66-0.46-2.24c-0.3-0.58-0.76-0.88-1.36-0.88c-0.63,0-1.29,0.21-2,0.63
		s-1.33,0.93-1.87,1.52s-1.04,1.19-1.49,1.79s-0.78,1.1-1.01,1.52l-0.39,0.63v9.63h-3.95v-17.5h3.95v3.99
		c2.4-2.78,4.89-4.17,7.46-4.17C984.53,273.27,986.22,274.97,986.22,278.35z"/>
	<path class="st0" d="M1006.87,286.05l1.5,1.58c-1.87,2.33-4.48,3.5-7.84,3.5c-2.57,0-4.84-0.87-6.81-2.61
		c-1.97-1.74-2.96-3.82-2.96-6.25c0-2.5,0.9-4.61,2.71-6.35c1.81-1.74,4.01-2.61,6.6-2.61c0.72,0,1.78,0.02,3.18,0.07
		c1.4,0.05,2.7,0.07,3.88,0.07v2.1c-3.94-0.26-6.3-0.38-7.07-0.38c-1.28,0-2.38,0.49-3.29,1.47c-0.91,0.98-1.49,2.25-1.75,3.82
		h10.36v2.1h-10.5c0.05,1.96,0.61,3.58,1.7,4.87c1.08,1.28,2.4,1.92,3.94,1.92C1002.87,289.34,1004.98,288.24,1006.87,286.05z"/>
	<path class="st0" d="M1027.06,264.7h3.96v26.25h-3.96v-15.54c-0.3,0-0.74-0.01-1.31-0.04c-0.57-0.02-1.08-0.04-1.54-0.05
		c-0.46-0.01-0.86-0.02-1.21-0.02c-1.66,0-2.96,0.62-3.9,1.85c-0.95,1.24-1.42,2.86-1.42,4.87c0,2.03,0.48,3.72,1.45,5.08
		c0.97,1.35,2.27,2.03,3.9,2.03h2.55v1.82h-3.04c-2.52,0-4.64-0.86-6.35-2.57c-1.71-1.71-2.57-3.83-2.57-6.35
		c0-2.5,0.86-4.56,2.59-6.2c1.73-1.63,3.86-2.45,6.41-2.45c1,0,2.49,0.02,4.45,0.07V264.7z"/>
	<path class="st0" d="M1039.59,266.45h3.99v3.43h-3.99V266.45z M1039.59,273.45h3.99v17.5h-3.99V273.45z"/>
	<path class="st0" d="M1066.44,290.95h-7.7c-0.77,0-1.39-0.02-1.87-0.05c-0.48-0.04-0.9-0.16-1.26-0.38
		c-0.36-0.22-0.62-0.43-0.77-0.63s-0.28-0.59-0.38-1.19c-0.1-0.59-0.16-1.14-0.17-1.64s-0.02-1.3-0.02-2.4v-9.24h-3.85v-1.96h3.85
		v-5.25h3.99v5.25h7.35v1.96h-7.35v8.75c0,2.19,0.12,3.55,0.35,4.06c0.23,0.51,0.93,0.77,2.1,0.77h5.74V290.95z"/>
	<path class="st0" d="M1087.44,286.05l1.5,1.58c-1.87,2.33-4.48,3.5-7.84,3.5c-2.57,0-4.84-0.87-6.81-2.61
		c-1.97-1.74-2.96-3.82-2.96-6.25c0-2.5,0.9-4.61,2.71-6.35c1.81-1.74,4.01-2.61,6.6-2.61c0.72,0,1.78,0.02,3.18,0.07
		c1.4,0.05,2.7,0.07,3.88,0.07v2.1c-3.94-0.26-6.3-0.38-7.07-0.38c-1.28,0-2.38,0.49-3.29,1.47c-0.91,0.98-1.49,2.25-1.75,3.82
		h10.36v2.1h-10.5c0.05,1.96,0.61,3.58,1.7,4.87c1.08,1.28,2.4,1.92,3.94,1.92C1083.44,289.34,1085.55,288.24,1087.44,286.05z"/>
	<path class="st0" d="M1107.63,264.7h3.96v26.25h-3.96v-15.54c-0.3,0-0.74-0.01-1.31-0.04c-0.57-0.02-1.08-0.04-1.54-0.05
		c-0.46-0.01-0.86-0.02-1.21-0.02c-1.66,0-2.96,0.62-3.9,1.85c-0.95,1.24-1.42,2.86-1.42,4.87c0,2.03,0.48,3.72,1.45,5.08
		c0.97,1.35,2.27,2.03,3.9,2.03h2.55v1.82h-3.04c-2.52,0-4.64-0.86-6.35-2.57s-2.57-3.83-2.57-6.35c0-2.5,0.86-4.56,2.59-6.2
		c1.73-1.63,3.86-2.45,6.41-2.45c1,0,2.48,0.02,4.44,0.07V264.7z"/>
	<path class="st0" d="M1134.69,264.7h3.95v8.75c1.96-0.05,3.44-0.07,4.45-0.07c2.54,0,4.68,0.82,6.41,2.45
		c1.73,1.63,2.59,3.7,2.59,6.2c0,2.52-0.86,4.64-2.57,6.35s-3.83,2.57-6.35,2.57h-3.04v-1.82h2.55c1.63,0,2.93-0.68,3.9-2.03
		c0.97-1.35,1.45-3.04,1.45-5.08c0-2.01-0.47-3.63-1.42-4.87c-0.95-1.24-2.25-1.85-3.9-1.85c-0.35,0-0.75,0.01-1.21,0.02
		c-0.45,0.01-0.97,0.03-1.54,0.05c-0.57,0.02-1.01,0.04-1.31,0.04v15.54h-3.95V264.7z"/>
	<path class="st0" d="M1171.37,290.95v-3.99c-2.4,2.78-4.89,4.17-7.46,4.17c-0.82,0-1.54-0.09-2.15-0.28
		c-0.62-0.19-1.11-0.49-1.47-0.91s-0.65-0.83-0.88-1.23c-0.22-0.4-0.37-0.96-0.46-1.7s-0.13-1.34-0.16-1.8
		c-0.02-0.47-0.04-1.13-0.04-2v-9.76h3.99v9.94c0,0.58,0.01,1.04,0.02,1.38c0.01,0.34,0.04,0.77,0.07,1.29
		c0.03,0.53,0.09,0.94,0.17,1.24c0.08,0.3,0.19,0.61,0.31,0.93c0.13,0.32,0.3,0.55,0.51,0.7c0.21,0.15,0.47,0.23,0.77,0.23
		c0.63,0,1.3-0.21,2-0.63c0.7-0.42,1.32-0.93,1.87-1.52c0.55-0.59,1.04-1.19,1.49-1.79s0.79-1.1,1.05-1.52l0.35-0.63v-9.63h3.96
		v17.5c0,0.96-0.14,1.83-0.42,2.63c-0.28,0.79-0.73,1.53-1.35,2.21c-0.62,0.68-1.51,1.21-2.68,1.59c-1.17,0.38-2.57,0.58-4.2,0.58
		h-7.38v-1.86h7.38c0.98,0,1.8-0.15,2.45-0.44c0.65-0.29,1.13-0.7,1.43-1.22s0.51-1.06,0.63-1.59
		C1171.31,292.3,1171.37,291.67,1171.37,290.95z"/>
	<path class="st0" d="M1219.32,292.7l-18.3-19.52v14.27c0,0.47-0.01,0.83-0.02,1.08c-0.01,0.26-0.06,0.59-0.16,1
		c-0.09,0.41-0.22,0.72-0.39,0.93s-0.42,0.4-0.77,0.58c-0.35,0.17-0.77,0.26-1.26,0.26c0.23-1.4,0.35-2.68,0.35-3.85V264.7
		l18.3,19.52v-14.25c0-0.49,0.02-0.9,0.05-1.23s0.13-0.73,0.28-1.2c0.15-0.47,0.41-0.83,0.79-1.07s0.86-0.37,1.47-0.37
		c-0.23,1.4-0.35,2.68-0.35,3.85V292.7z"/>
	<path class="st0" d="M1243.51,288.08l-2.85-6.23h-8.67l-2.83,6.22c-0.25,0.56-0.45,0.97-0.59,1.21s-0.37,0.56-0.69,0.95
		s-0.71,0.66-1.16,0.83c-0.45,0.16-0.99,0.25-1.62,0.25c0.68-1.07,1.26-2.15,1.75-3.22l10.64-23.38l10.64,23.38
		c0.21,0.47,0.46,0.97,0.75,1.5c0.29,0.54,0.53,0.96,0.72,1.26l0.28,0.46c-1.17,0-2.14-0.08-2.92-0.24
		c-0.78-0.16-1.39-0.43-1.83-0.81c-0.44-0.37-0.76-0.7-0.94-0.96C1243.98,289.02,1243.76,288.61,1243.51,288.08z M1236.31,272.35
		l-3.37,7.4h6.76L1236.31,272.35z"/>
	<path class="st0" d="M1271.26,288.08l-2.85-6.23h-8.67l-2.83,6.22c-0.25,0.56-0.45,0.97-0.59,1.21c-0.14,0.25-0.37,0.56-0.69,0.95
		s-0.71,0.66-1.16,0.83c-0.45,0.16-0.99,0.25-1.62,0.25c0.68-1.07,1.26-2.15,1.75-3.22l10.64-23.38l10.64,23.38
		c0.21,0.47,0.46,0.97,0.75,1.5c0.29,0.54,0.53,0.96,0.72,1.26l0.28,0.46c-1.17,0-2.14-0.08-2.92-0.24
		c-0.78-0.16-1.39-0.43-1.83-0.81c-0.44-0.37-0.76-0.7-0.95-0.96C1271.74,289.02,1271.52,288.61,1271.26,288.08z M1264.06,272.35
		l-3.37,7.4h6.75L1264.06,272.35z"/>
	<path class="st0" d="M1302.06,285.21l2.55,1.26c-2.38,3.1-5.7,4.66-9.97,4.66c-3.48,0-6.48-1.21-9.01-3.62s-3.8-5.35-3.8-8.8
		c0-3.38,1.16-6.25,3.48-8.59c2.32-2.34,5.19-3.62,8.59-3.83c0.44-0.02,1.23-0.04,2.35-0.04l7.35,0.21c0,0.14-0.02,0.3-0.05,0.49
		c-0.03,0.19-0.11,0.45-0.23,0.79c-0.12,0.34-0.35,0.62-0.7,0.84c-0.35,0.22-0.78,0.33-1.29,0.33c-2.08-0.51-4.31-0.77-6.69-0.77
		c-2.47,0-4.5,1.02-6.07,3.06c-1.58,2.04-2.36,4.54-2.36,7.51c0,2.89,0.83,5.37,2.5,7.42c1.67,2.05,3.65,3.08,5.93,3.08
		C1297.46,289.2,1299.93,287.87,1302.06,285.21z"/>
	<path class="st0" d="M1340.25,272.47l6.88,12.72l4.63-11.73h2.1l-7.58,18.6l-7.22-13.28l-7.15,13.14l-7.52-18.46h4.27l4.64,11.66
		L1340.25,272.47z"/>
	<path class="st0" d="M1360.68,266.45h3.99v3.43h-3.99V266.45z M1360.68,273.45h3.99v17.5h-3.99V273.45z"/>
	<path class="st0" d="M1387.53,290.95h-7.7c-0.77,0-1.39-0.02-1.87-0.05s-0.9-0.16-1.26-0.38c-0.36-0.22-0.62-0.43-0.77-0.63
		c-0.15-0.2-0.28-0.59-0.39-1.19c-0.1-0.59-0.16-1.14-0.17-1.64s-0.02-1.3-0.02-2.4v-9.24h-3.85v-1.96h3.85v-5.25h3.99v5.25h7.35
		v1.96h-7.35v8.75c0,2.19,0.12,3.55,0.35,4.06c0.23,0.51,0.93,0.77,2.1,0.77h5.74V290.95z"/>
	<path class="st0" d="M1397.6,264.7v12.74c2.4-2.78,4.89-4.17,7.46-4.17c0.82,0,1.53,0.09,2.15,0.28c0.62,0.19,1.11,0.49,1.47,0.91
		c0.36,0.42,0.65,0.83,0.88,1.23s0.37,0.96,0.46,1.7c0.08,0.74,0.13,1.34,0.16,1.8s0.04,1.13,0.04,2v9.76h-3.99v-9.94
		c0-0.58-0.01-1.04-0.02-1.38s-0.03-0.77-0.07-1.29c-0.04-0.53-0.09-0.94-0.17-1.24c-0.08-0.3-0.19-0.61-0.32-0.93
		c-0.13-0.32-0.3-0.55-0.51-0.7s-0.47-0.23-0.77-0.23c-0.63,0-1.29,0.21-2,0.63s-1.32,0.93-1.87,1.52
		c-0.55,0.59-1.04,1.19-1.49,1.79s-0.78,1.1-1.01,1.52l-0.38,0.63v9.63h-3.96V264.7H1397.6z"/>
	<path class="st0" d="M1437.01,273.45h-3.5l2.28-7.35h1.22V273.45z"/>
	<path class="st0" d="M1461.2,288.08l-2.85-6.23h-8.67l-2.83,6.22c-0.25,0.56-0.45,0.97-0.59,1.21c-0.14,0.25-0.37,0.56-0.69,0.95
		s-0.71,0.66-1.16,0.83s-0.99,0.25-1.62,0.25c0.68-1.07,1.26-2.15,1.75-3.22l10.64-23.38l10.64,23.38c0.21,0.47,0.46,0.97,0.75,1.5
		c0.29,0.54,0.53,0.96,0.72,1.26l0.28,0.46c-1.17,0-2.14-0.08-2.92-0.24c-0.78-0.16-1.39-0.43-1.84-0.81
		c-0.44-0.37-0.76-0.7-0.94-0.96C1461.68,289.02,1461.46,288.61,1461.2,288.08z M1454.01,272.35l-3.37,7.4h6.75L1454.01,272.35z"/>
	<path class="st0" d="M1473.34,266.1h3.5l-2.27,7.35h-1.23V266.1z"/>
	<path class="st0" d="M1511.88,291.12c-3.48,0-6.48-1.21-9.01-3.62c-2.53-2.42-3.8-5.35-3.8-8.8c0-3.38,1.16-6.25,3.48-8.59
		c2.32-2.34,5.19-3.62,8.59-3.83c0.44-0.02,1.23-0.04,2.34-0.04l7.35,0.21c0,0.14-0.02,0.3-0.05,0.49s-0.11,0.45-0.23,0.79
		c-0.12,0.34-0.35,0.62-0.7,0.84c-0.35,0.22-0.78,0.33-1.29,0.33c-2.08-0.51-4.3-0.77-6.68-0.77c-2.47,0-4.5,1.02-6.07,3.06
		c-1.58,2.04-2.36,4.54-2.36,7.51c0,2.89,0.83,5.37,2.5,7.42c1.67,2.05,3.65,3.08,5.93,3.08c0.56,0,2.16-0.14,4.79-0.42v-8.5h4.2
		v7.21c0,0.51,0.03,1.06,0.09,1.64c0.06,0.58,0.12,1.03,0.19,1.33l0.07,0.49c-0.93,0-2.49,0.03-4.66,0.09
		C1514.4,291.09,1512.83,291.12,1511.88,291.12z"/>
	<path class="st0" d="M1544.53,278.35h-3.95c0-0.91-0.15-1.66-0.46-2.24c-0.3-0.58-0.76-0.88-1.37-0.88c-0.63,0-1.29,0.21-2,0.63
		s-1.32,0.93-1.87,1.52c-0.55,0.59-1.04,1.19-1.49,1.79s-0.78,1.1-1.01,1.52l-0.38,0.63v9.63h-3.96v-17.5h3.96v3.99
		c2.4-2.78,4.89-4.17,7.46-4.17C1542.84,273.27,1544.53,274.97,1544.53,278.35z"/>
	<path class="st0" d="M1563.43,290.95v-8.71c-3.99-0.35-6.01-0.53-6.06-0.53c-1,0-1.85,0.38-2.55,1.14
		c-0.7,0.76-1.05,1.62-1.05,2.57c0,1.1,0.36,2.03,1.07,2.8c0.71,0.77,1.63,1.16,2.75,1.16c0.56,0,1.94-0.12,4.13-0.35l0.1,1.92
		c-2.57,0.21-4.22,0.32-4.97,0.32c-2.08,0-3.8-0.55-5.18-1.65c-1.38-1.1-2.07-2.44-2.07-4.03c0-1.4,0.67-2.71,2.01-3.94
		c1.34-1.22,3.05-1.84,5.13-1.84c0.61,0,2.83,0.21,6.69,0.63v-1.05c0-1.1-0.42-2.06-1.26-2.89c-0.84-0.83-1.87-1.24-3.08-1.24
		c-0.54,0-1.83,0.05-3.87,0.14c-2.04,0.09-3.44,0.15-4.18,0.17v-2.13c0.68-0.02,1.62-0.05,2.83-0.09c1.21-0.03,2.32-0.06,3.33-0.09
		s1.95-0.04,2.83-0.04c2.12,0,3.89,0.5,5.29,1.5c1.4,1,2.1,2.32,2.1,3.96v12.25H1563.43z"/>
	<path class="st0" d="M1587.16,264.7h3.96v26.25h-3.96v-15.54c-0.3,0-0.74-0.01-1.31-0.04c-0.57-0.02-1.08-0.04-1.54-0.05
		c-0.46-0.01-0.86-0.02-1.21-0.02c-1.66,0-2.96,0.62-3.9,1.85c-0.94,1.24-1.42,2.86-1.42,4.87c0,2.03,0.48,3.72,1.45,5.08
		c0.97,1.35,2.27,2.03,3.9,2.03h2.56v1.82h-3.04c-2.52,0-4.64-0.86-6.35-2.57c-1.72-1.71-2.57-3.83-2.57-6.35
		c0-2.5,0.86-4.56,2.59-6.2c1.73-1.63,3.86-2.45,6.4-2.45c1,0,2.49,0.02,4.45,0.07V264.7z"/>
	<path class="st0" d="M1613.87,286.05l1.5,1.58c-1.87,2.33-4.48,3.5-7.84,3.5c-2.57,0-4.84-0.87-6.81-2.61s-2.96-3.82-2.96-6.25
		c0-2.5,0.9-4.61,2.71-6.35c1.81-1.74,4.01-2.61,6.6-2.61c0.72,0,1.79,0.02,3.18,0.07c1.4,0.05,2.7,0.07,3.89,0.07v2.1
		c-3.94-0.26-6.3-0.38-7.07-0.38c-1.28,0-2.38,0.49-3.29,1.47c-0.91,0.98-1.49,2.25-1.75,3.82h10.36v2.1h-10.5
		c0.05,1.96,0.61,3.58,1.7,4.87s2.4,1.92,3.94,1.92C1609.87,289.34,1611.98,288.24,1613.87,286.05z"/>
</g>
<g>
	<g>
		<path class="st1" d="M514.58,167.14v41.4h-8.28v-41.4c0-1.2,0.06-2.1,0.17-2.73c0.11-0.62,0.42-1.38,0.93-2.28
			c0.51-0.9,1.41-1.55,2.73-1.97s3.02-0.62,5.14-0.62C514.81,162.31,514.58,164.84,514.58,167.14z"/>
		<path class="st1" d="M572.68,211.99l-36.09-38.48v28.14c0,0.92-0.01,1.63-0.03,2.14c-0.02,0.51-0.13,1.16-0.31,1.97
			c-0.18,0.8-0.44,1.41-0.76,1.83c-0.32,0.41-0.83,0.79-1.52,1.14c-0.69,0.34-1.52,0.52-2.48,0.52c0.46-2.76,0.69-5.29,0.69-7.59
			v-44.85l36.09,38.48v-28.09c0-0.97,0.03-1.78,0.1-2.43c0.07-0.65,0.25-1.43,0.55-2.36c0.3-0.93,0.82-1.63,1.55-2.12
			c0.74-0.49,1.7-0.73,2.9-0.73c-0.46,2.76-0.69,5.29-0.69,7.59V211.99z"/>
		<path class="st1" d="M613.12,164.87c-4.97-0.83-8.46-1.24-10.49-1.24c-3.13,0-5.54,0.71-7.25,2.14c-1.7,1.43-2.55,3.17-2.55,5.24
			c0,2.16,0.94,3.7,2.83,4.63l17.25,8.42c2.48,1.24,4.37,2.83,5.66,4.76c1.29,1.93,1.93,4,1.93,6.21c0,3.68-1.62,6.91-4.86,9.7
			c-3.24,2.78-7.6,4.17-13.08,4.17c-1.98,0-4.78-0.06-8.42-0.17c-3.63-0.12-6.42-0.17-8.35-0.17l3.66-5.17
			c4.55,1.06,8.9,1.59,13.04,1.59c3.59,0,6.36-0.75,8.31-2.24c1.95-1.5,2.93-3.23,2.93-5.21c0-2.28-1.11-3.92-3.33-4.92l-16.88-8.39
			c-2.25-1.1-3.99-2.67-5.21-4.69c-1.22-2.02-1.83-4.19-1.83-6.49c0-3.59,1.4-6.67,4.21-9.25c2.81-2.58,6.78-3.86,11.94-3.86
			c1.75,0,4.36,0.06,7.83,0.17c3.47,0.12,6.04,0.17,7.69,0.17c0,0.28-0.03,0.6-0.1,0.97c-0.07,0.37-0.24,0.86-0.52,1.48
			c-0.28,0.62-0.79,1.14-1.55,1.55S614.26,164.87,613.12,164.87z"/>
		<path class="st1" d="M631.54,164.52c-1.01,0-1.81-0.37-2.38-1.1c-0.58-0.74-0.9-1.36-0.97-1.86c-0.07-0.51-0.1-0.94-0.1-1.31
			h46.23c0,0.37-0.03,0.8-0.1,1.31c-0.07,0.51-0.39,1.13-0.97,1.86c-0.58,0.74-1.37,1.1-2.38,1.1c-1.06,0-2.79-0.04-5.21-0.14
			c-2.42-0.09-4.57-0.14-6.45-0.14h-3.52v44.3h-8.97v-44.3h-3.52c-1.89,0-4.04,0.05-6.45,0.14
			C634.33,164.48,632.6,164.52,631.54,164.52z"/>
		<path class="st1" d="M694.67,167.14v41.4h-8.28v-41.4c0-1.2,0.06-2.1,0.17-2.73c0.11-0.62,0.42-1.38,0.93-2.28
			c0.51-0.9,1.41-1.55,2.73-1.97s3.02-0.62,5.14-0.62C694.9,162.31,694.67,164.84,694.67,167.14z"/>
		<path class="st1" d="M710.2,164.52c-1.01,0-1.81-0.37-2.38-1.1c-0.58-0.74-0.9-1.36-0.97-1.86c-0.07-0.51-0.1-0.94-0.1-1.31h46.23
			c0,0.37-0.04,0.8-0.1,1.31c-0.07,0.51-0.39,1.13-0.97,1.86c-0.57,0.74-1.37,1.1-2.38,1.1c-1.06,0-2.79-0.04-5.21-0.14
			c-2.41-0.09-4.56-0.14-6.45-0.14h-3.52v44.3h-8.97v-44.3h-3.52c-1.89,0-4.04,0.05-6.45,0.14
			C712.99,164.48,711.25,164.52,710.2,164.52z"/>
		<path class="st1" d="M762.29,159.55c2.12,0,3.83,0.21,5.14,0.62c1.31,0.41,2.22,1.07,2.73,1.97c0.5,0.9,0.82,1.66,0.93,2.28
			c0.11,0.62,0.17,1.53,0.17,2.73v27.6c0,2.9,1.04,5.42,3.11,7.56c2.07,2.14,4.62,3.21,7.66,3.21c3.22,0,6.21-1.09,8.97-3.28
			c2.76-2.18,4.14-4.68,4.14-7.49v-27.6c0-0.92,0.01-1.63,0.04-2.14c0.02-0.51,0.11-1.16,0.28-1.97c0.16-0.8,0.41-1.41,0.76-1.83
			c0.35-0.41,0.84-0.79,1.48-1.14s1.45-0.52,2.42-0.52c-0.46,2.76-0.69,5.29-0.69,7.59v27.6c0,4-1.78,7.42-5.35,10.25
			c-3.57,2.83-7.86,4.24-12.87,4.24c-5.01,0-9.3-1.42-12.87-4.24c-3.57-2.83-5.35-6.24-5.35-10.25v-27.6c0-1.01-0.06-2.15-0.17-3.42
			c-0.12-1.26-0.24-2.29-0.38-3.07L762.29,159.55z"/>
		<path class="st1" d="M812.87,164.52c-1.01,0-1.81-0.37-2.38-1.1c-0.58-0.74-0.9-1.36-0.97-1.86c-0.07-0.51-0.1-0.94-0.1-1.31
			h46.23c0,0.37-0.04,0.8-0.1,1.31c-0.07,0.51-0.39,1.13-0.97,1.86c-0.58,0.74-1.37,1.1-2.38,1.1c-1.06,0-2.79-0.04-5.21-0.14
			c-2.42-0.09-4.57-0.14-6.45-0.14h-3.52v44.3h-8.97v-44.3h-3.52c-1.89,0-4.04,0.05-6.45,0.14
			C815.66,164.48,813.93,164.52,812.87,164.52z"/>
		<path class="st1" d="M873.93,186.46v17.94h18.63c1.43,0,2.54,0.34,3.35,1.03c0.8,0.69,1.25,1.38,1.35,2.07l0.14,1.04h-32.43
			c0.46-2.25,0.69-4.53,0.69-6.83v-34.57c0-1.01-0.06-2.09-0.17-3.24c-0.12-1.15-0.24-2.05-0.38-2.69l-0.14-0.97h32.43
			c0,0.09-0.01,0.24-0.03,0.45c-0.02,0.21-0.12,0.54-0.28,1s-0.4,0.87-0.72,1.24c-0.32,0.37-0.8,0.7-1.45,1
			c-0.65,0.3-1.43,0.45-2.35,0.45h-18.63v17.94h17.25v4.14H873.93z"/>
		<path class="st1" d="M943.24,202.02c-4.58-4.81-6.87-10.68-6.87-17.63c0-6.95,2.29-12.82,6.87-17.63
			c4.58-4.81,10.38-7.21,17.42-7.21s12.84,2.4,17.42,7.21c4.58,4.81,6.87,10.68,6.87,17.63c0,6.95-2.29,12.82-6.87,17.63
			c-4.58,4.81-10.38,7.21-17.42,7.21S947.82,206.83,943.24,202.02z M949.45,169.21c-2.97,4.14-4.45,9.2-4.45,15.18
			c0,5.98,1.48,11.04,4.45,15.18c2.97,4.14,6.7,6.21,11.21,6.21c4.51,0,8.25-2.07,11.21-6.21c2.97-4.14,4.45-9.2,4.45-15.18
			c0-5.98-1.48-11.04-4.45-15.18c-2.97-4.14-6.7-6.21-11.21-6.21C956.16,163,952.42,165.07,949.45,169.21z"/>
		<path class="st1" d="M1005.58,164.38v17.94h17.25v4.14h-17.25v15.18c0,1.2-0.06,2.1-0.17,2.73c-0.12,0.62-0.43,1.38-0.93,2.28
			c-0.51,0.9-1.42,1.55-2.73,1.97c-1.31,0.41-3.03,0.62-5.14,0.62c0.46-2.76,0.69-5.29,0.69-7.59v-34.5c0-1.01-0.06-2.09-0.17-3.24
			c-0.12-1.15-0.24-2.05-0.38-2.69l-0.14-0.97h32.43c0,0.18-0.01,0.37-0.03,0.55c-0.02,0.18-0.12,0.52-0.28,1
			c-0.16,0.48-0.4,0.9-0.72,1.24c-0.32,0.35-0.8,0.66-1.45,0.93c-0.65,0.28-1.43,0.41-2.35,0.41H1005.58z"/>
		<path class="st1" d="M1066.99,164.52c-1.01,0-1.81-0.37-2.38-1.1c-0.58-0.74-0.9-1.36-0.97-1.86c-0.07-0.51-0.1-0.94-0.1-1.31
			h46.23c0,0.37-0.04,0.8-0.1,1.31c-0.07,0.51-0.39,1.13-0.97,1.86c-0.58,0.74-1.37,1.1-2.38,1.1c-1.06,0-2.79-0.04-5.21-0.14
			c-2.42-0.09-4.57-0.14-6.45-0.14h-3.52v44.3h-8.97v-44.3h-3.52c-1.89,0-4.04,0.05-6.45,0.14
			C1069.79,164.48,1068.05,164.52,1066.99,164.52z"/>
		<path class="st1" d="M1128.06,186.46v17.94h18.63c1.43,0,2.54,0.34,3.35,1.03c0.8,0.69,1.25,1.38,1.35,2.07l0.14,1.04h-32.43
			c0.46-2.25,0.69-4.53,0.69-6.83v-34.57c0-1.01-0.06-2.09-0.17-3.24c-0.12-1.15-0.24-2.05-0.38-2.69l-0.14-0.97h32.43
			c0,0.09-0.01,0.24-0.03,0.45c-0.02,0.21-0.12,0.54-0.28,1s-0.4,0.87-0.72,1.24c-0.32,0.37-0.8,0.7-1.45,1
			c-0.65,0.3-1.43,0.45-2.35,0.45h-18.63v17.94h17.25v4.14H1128.06z"/>
		<path class="st1" d="M1201.75,197.23l5.04,2.48c-4.69,6.12-11.25,9.18-19.67,9.18c-6.85,0-12.78-2.38-17.77-7.14
			c-4.99-4.76-7.49-10.54-7.49-17.35c0-6.67,2.29-12.32,6.87-16.94s10.22-7.14,16.94-7.55c0.87-0.05,2.42-0.07,4.62-0.07l14.49,0.41
			c0,0.28-0.03,0.6-0.1,0.97c-0.07,0.37-0.22,0.89-0.45,1.55c-0.23,0.67-0.69,1.22-1.38,1.66c-0.69,0.44-1.54,0.66-2.55,0.66
			c-4.09-1.01-8.49-1.52-13.18-1.52c-4.88,0-8.87,2.01-11.97,6.04c-3.1,4.03-4.66,8.96-4.66,14.8c0,5.71,1.64,10.58,4.93,14.63
			c3.29,4.05,7.19,6.07,11.7,6.07C1192.69,205.09,1197.56,202.47,1201.75,197.23z"/>
		<path class="st1" d="M1226.8,167.14v15.18h22.42v-15.18c0-1.2,0.06-2.1,0.17-2.73c0.11-0.62,0.42-1.38,0.93-2.28
			c0.51-0.9,1.41-1.55,2.73-1.97c1.31-0.41,3.02-0.62,5.14-0.62c-0.46,2.76-0.69,5.29-0.69,7.59v34.57c0,1.01,0.06,2.15,0.17,3.42
			c0.11,1.27,0.22,2.27,0.31,3l0.21,1.1c-2.12,0-3.83-0.21-5.14-0.62c-1.31-0.41-2.22-1.07-2.73-1.97c-0.51-0.9-0.82-1.66-0.93-2.28
			c-0.12-0.62-0.17-1.53-0.17-2.73v-15.18h-22.42v15.18c0,1.2-0.06,2.1-0.17,2.73c-0.12,0.62-0.43,1.38-0.93,2.28
			c-0.51,0.9-1.42,1.55-2.73,1.97c-1.31,0.41-3.03,0.62-5.14,0.62c0.46-2.71,0.69-5.22,0.69-7.52v-34.57c0-1.01-0.06-2.15-0.17-3.42
			c-0.12-1.26-0.24-2.29-0.38-3.07l-0.14-1.1c2.12,0,3.83,0.21,5.14,0.62c1.31,0.41,2.22,1.07,2.73,1.97
			c0.5,0.9,0.82,1.66,0.93,2.28C1226.74,165.04,1226.8,165.95,1226.8,167.14z"/>
		<path class="st1" d="M1313.53,211.99l-36.09-38.48v28.14c0,0.92-0.01,1.63-0.03,2.14c-0.02,0.51-0.13,1.16-0.31,1.97
			c-0.18,0.8-0.44,1.41-0.76,1.83c-0.32,0.41-0.83,0.79-1.52,1.14c-0.69,0.34-1.52,0.52-2.48,0.52c0.46-2.76,0.69-5.29,0.69-7.59
			v-44.85l36.09,38.48v-28.09c0-0.97,0.03-1.78,0.1-2.43c0.07-0.65,0.25-1.43,0.55-2.36c0.3-0.93,0.82-1.63,1.55-2.12
			c0.73-0.49,1.7-0.73,2.9-0.73c-0.46,2.76-0.69,5.29-0.69,7.59V211.99z"/>
		<path class="st1" d="M1332.81,202.02c-4.58-4.81-6.87-10.68-6.87-17.63c0-6.95,2.29-12.82,6.87-17.63
			c4.58-4.81,10.38-7.21,17.42-7.21s12.84,2.4,17.42,7.21c4.58,4.81,6.87,10.68,6.87,17.63c0,6.95-2.29,12.82-6.87,17.63
			c-4.58,4.81-10.38,7.21-17.42,7.21S1337.39,206.83,1332.81,202.02z M1339.02,169.21c-2.97,4.14-4.45,9.2-4.45,15.18
			c0,5.98,1.48,11.04,4.45,15.18c2.97,4.14,6.7,6.21,11.21,6.21c4.51,0,8.25-2.07,11.21-6.21c2.97-4.14,4.45-9.2,4.45-15.18
			c0-5.98-1.48-11.04-4.45-15.18c-2.97-4.14-6.7-6.21-11.21-6.21C1345.73,163,1341.99,165.07,1339.02,169.21z"/>
		<path class="st1" d="M1395.15,167.14v37.26h18.63c0.92,0,1.7,0.14,2.35,0.41c0.64,0.28,1.13,0.59,1.45,0.93
			c0.32,0.35,0.56,0.76,0.72,1.24c0.16,0.48,0.25,0.82,0.28,1c0.02,0.18,0.03,0.37,0.03,0.55h-32.43c0.46-2.3,0.69-4.6,0.69-6.9
			v-34.5c0-1.01-0.06-2.15-0.17-3.42c-0.12-1.26-0.24-2.29-0.38-3.07l-0.14-1.1c2.12,0,3.83,0.21,5.14,0.62
			c1.31,0.41,2.22,1.07,2.73,1.97c0.5,0.9,0.82,1.66,0.93,2.28C1395.1,165.04,1395.15,165.95,1395.15,167.14z"/>
		<path class="st1" d="M1431,202.02c-4.58-4.81-6.87-10.68-6.87-17.63c0-6.95,2.29-12.82,6.87-17.63
			c4.58-4.81,10.38-7.21,17.42-7.21s12.84,2.4,17.42,7.21c4.58,4.81,6.87,10.68,6.87,17.63c0,6.95-2.29,12.82-6.87,17.63
			c-4.58,4.81-10.38,7.21-17.42,7.21S1435.58,206.83,1431,202.02z M1437.21,169.21c-2.97,4.14-4.45,9.2-4.45,15.18
			c0,5.98,1.48,11.04,4.45,15.18c2.97,4.14,6.7,6.21,11.21,6.21c4.51,0,8.25-2.07,11.21-6.21c2.97-4.14,4.45-9.2,4.45-15.18
			c0-5.98-1.48-11.04-4.45-15.18c-2.97-4.14-6.7-6.21-11.21-6.21C1443.91,163,1440.18,165.07,1437.21,169.21z"/>
		<path class="st1" d="M1507.21,208.89c-6.85,0-12.78-2.38-17.77-7.14c-4.99-4.76-7.49-10.54-7.49-17.35
			c0-6.67,2.29-12.32,6.87-16.94s10.22-7.14,16.94-7.55c0.87-0.05,2.42-0.07,4.62-0.07l14.49,0.41c0,0.28-0.03,0.6-0.1,0.97
			c-0.07,0.37-0.22,0.89-0.45,1.55c-0.23,0.67-0.69,1.22-1.38,1.66c-0.69,0.44-1.54,0.66-2.55,0.66c-4.09-1.01-8.49-1.52-13.18-1.52
			c-4.88,0-8.87,2.01-11.97,6.04c-3.1,4.03-4.66,8.96-4.66,14.8c0,5.71,1.64,10.58,4.93,14.63c3.29,4.05,7.19,6.07,11.7,6.07
			c1.1,0,4.25-0.28,9.45-0.83V187.5h8.28v14.21c0,1.01,0.06,2.09,0.17,3.24c0.11,1.15,0.24,2.02,0.38,2.62l0.14,0.97
			c-1.84,0-4.9,0.06-9.18,0.17C1512.18,208.83,1509.1,208.89,1507.21,208.89z"/>
		<path class="st1" d="M1574.48,166.12l-11.25,14.9c-1.19,1.66-1.79,4.26-1.79,7.81v19.71h-8.28v-19.67c0-2.81-0.62-5.04-1.86-6.69
			l-11.25-14.9c-0.6-0.78-1.5-1.82-2.69-3.11c-1.2-1.29-2.23-2.37-3.11-3.24l-1.38-1.38c3.54,0,6.45,0.33,8.73,1
			c2.28,0.67,3.8,1.34,4.56,2.03c0.76,0.69,1.65,1.7,2.66,3.03l10.38,13.64l10.4-13.89c0.9-1.29,1.68-2.26,2.33-2.9
			c0.65-0.65,1.74-1.29,3.24-1.94c1.51-0.65,3.32-0.97,5.44-0.97C1577.86,162.15,1575.81,164.34,1574.48,166.12z"/>
	</g>
</g>
<path class="st2" d="M402.58,232.91c0,0.46,0,0.84,0,1.21c-0.82,0.22-354.19,0.25-355.3,0.04c0-0.37,0-0.76,0-1.16
	c0.01-0.01,0.04-0.03,0.06-0.06c0.02-0.02,0.05-0.05,0.08-0.06c0.13-0.02,0.26-0.05,0.4-0.05c118.09,0,236.17,0,354.26,0
	C402.2,232.84,402.33,232.88,402.58,232.91z"/>
<g>
	<path class="st2" d="M354.68,280.99c-0.17,0.18-0.31,0.41-0.52,0.52c-3,1.53-6.64,2.79-7.82,2.66c0-1.07,0-2.17,0-3.57
		c-0.55,0.46-0.88,0.7-1.17,0.98c-1.66,1.62-3.63,2.59-5.94,2.69c-2.19,0.09-4.2-0.56-5.93-1.95c-2.45-1.96-3.91-4.51-4.4-7.6
		c-0.77-4.87,0.51-9.18,3.57-13c2.1-2.62,4.9-3.9,8.2-3.98c1.54-0.03,3.07,0.35,4.37,1.3c0.34,0.25,0.68,0.48,1.17,0.83
		c0.06-0.49,0.14-0.81,0.13-1.12c-0.02-2.71-0.05-5.42-0.1-8.12c-0.01-0.43-0.1-0.86-0.21-1.28c-0.34-1.24-0.95-1.63-2.25-1.5
		c-0.49,0.05-0.99,0.41-1.5-0.03c1.13-0.98,6.88-3.22,8.29-3.16c0,0.55,0,1.11,0,1.67c0,9.43-0.01,18.87,0.01,28.3
		c0,1.3,0.11,2.6,0.19,3.9c0.13,2.09,0.96,2.73,3.03,2.34c0.22-0.04,0.44-0.11,0.66-0.17C354.54,280.8,354.61,280.89,354.68,280.99z
		 M346.29,272.08c0-1.88,0.01-3.77,0-5.65c-0.01-1.74-0.49-3.34-1.51-4.75c-2.03-2.78-5.57-3.11-8.1-0.79
		c-1.4,1.28-2.23,2.9-2.66,4.72c-0.71,2.96-0.67,5.94,0.04,8.9c0.51,2.12,1.59,3.92,3.29,5.33c2.61,2.16,5.61,2.06,8.12-0.22
		c0.57-0.52,0.86-1.08,0.84-1.88C346.25,275.85,346.29,273.96,346.29,272.08z"/>
	<path class="st2" d="M101.19,284.32c-0.35-1.04-0.39-10.98,0.01-12.56c0.27,0.28,0.56,0.44,0.63,0.67
		c0.27,0.93,0.43,1.89,0.71,2.81c1.41,4.65,5.18,7.43,10.04,7.46c1.31,0.01,2.59-0.04,3.84-0.56c4.02-1.67,5.29-6.18,2.56-9.55
		c-0.8-0.99-1.87-1.83-2.96-2.52c-2.57-1.62-5.25-3.08-7.85-4.67c-1.36-0.83-2.71-1.71-3.92-2.73c-2.94-2.46-4.29-5.61-3.38-9.42
		c0.9-3.75,3.42-6.09,7.07-7.18c2.83-0.85,5.63-0.53,8.37,0.48c0.91,0.33,1.79,0.74,2.71,1.03c1.31,0.41,1.98,0.07,2.57-1.15
		c0.17-0.34,0.08-0.95,0.75-0.86c0.3,1.01,0.41,10.12,0.12,12.77c-0.31-0.3-0.61-0.45-0.67-0.67c-0.3-1.07-0.49-2.16-0.81-3.22
		c-1.43-4.78-6.13-7.18-10.27-6.88c-3.62,0.26-6.17,3.31-5.95,6.11c0.1,1.22,0.49,2.29,1.35,3.12c0.86,0.84,1.77,1.66,2.78,2.31
		c2.08,1.33,4.24,2.52,6.35,3.79c1.87,1.12,3.79,2.15,5.55,3.42c3.04,2.18,4.68,5.19,4.21,8.99c-0.54,4.35-3.73,7.71-8.02,8.72
		c-2.58,0.6-5.17,0.59-7.74-0.16c-1.44-0.42-2.86-0.88-4.3-1.3c-0.37-0.11-0.75-0.2-1.13-0.23c-1.09-0.07-1.45,0.18-1.87,1.21
		C101.79,283.88,101.86,284.45,101.19,284.32z"/>
	<path class="st2" d="M249.07,248.08c1.15-1.23,7.11-3.53,8.49-3.37c0,5.97,0,11.95,0,18.23c0.5-0.38,0.8-0.57,1.06-0.8
		c1.08-0.97,2.08-2.04,3.23-2.91c1.55-1.18,3.33-1.65,5.31-1.34c1.93,0.3,3.25,1.35,4.13,3.05c1.03,2,1.13,4.18,1.15,6.36
		c0.03,3.63,0,7.26,0.02,10.89c0,0.77,0.08,1.54,0.2,2.3c0.24,1.48,0.87,2.07,2.34,2.36c0.37,0.07,0.73,0.16,1.09,0.25
		c0.02,0,0.02,0.08,0.06,0.25c-0.19,0.06-0.38,0.18-0.58,0.18c-3.8,0-7.6,0.1-11.39-0.05c-0.02-0.11-0.04-0.22-0.06-0.33
		c0.26-0.09,0.52-0.24,0.78-0.26c2.45-0.23,3.23-1.07,3.23-3.5c0.01-4.16,0.02-8.32-0.01-12.48c-0.01-0.96-0.11-1.93-0.29-2.88
		c-0.37-1.98-1.77-3.1-3.77-3.13c-1.25-0.02-2.39,0.34-3.42,1.02c-0.6,0.39-1.13,0.9-1.71,1.33c-1,0.75-1.38,1.69-1.35,2.99
		c0.1,4.35,0.05,8.71,0.07,13.06c0.01,2.5,0.68,3.24,3.17,3.59c0.26,0.04,0.52,0.12,1.01,0.25c-1.12,0.71-2.14,0.35-3.09,0.41
		c-1.06,0.06-2.13,0.01-3.19,0.01c-1.02,0-2.03,0.02-3.05-0.01c-0.96-0.02-1.95,0.13-2.89-0.14c0-0.11-0.01-0.23-0.01-0.34
		c0.53-0.14,1.06-0.28,1.59-0.41c1.11-0.28,1.77-0.97,1.91-2.1c0.11-0.81,0.21-1.63,0.21-2.45c0.02-8.23,0.02-16.45,0-24.68
		c0-1.2-0.1-2.41-0.22-3.61c-0.17-1.6-0.96-2.16-2.59-1.92C250.12,247.97,249.75,248,249.07,248.08z"/>
	<path class="st2" d="M233.48,283.03c0.6-0.13,1.2-0.24,1.79-0.4c1.37-0.37,1.96-1.12,1.85-2.52c-0.06-0.76-0.22-1.54-0.49-2.25
		c-0.76-1.99-1.62-3.93-2.38-5.92c-0.25-0.65-0.63-0.88-1.3-0.88c-4.26,0.02-8.52,0.01-12.78,0c-0.59,0-0.99,0.15-1.23,0.76
		c-0.87,2.15-1.79,4.28-2.69,6.42c-0.04,0.09-0.07,0.18-0.1,0.27c-0.82,2.63-0.21,3.65,2.51,4.17c0.38,0.07,0.75,0.17,1.12,0.28
		c0.07,0.02,0.11,0.14,0.16,0.21c-0.01,0.05-0.01,0.1-0.03,0.14c-0.02,0.04-0.06,0.1-0.09,0.1c-3.28,0.05-6.57,0.09-9.85,0.13
		c-0.42,0-0.84-0.05-1.64-0.1c0.5-0.38,0.7-0.67,0.94-0.7c2.02-0.27,3.16-1.61,3.93-3.29c1.51-3.3,2.96-6.62,4.39-9.95
		c3.24-7.55,6.44-15.12,9.68-22.68c0.21-0.49,0.26-1.16,1.13-1.39c0.23,0.46,0.47,0.9,0.67,1.37c3.82,9.15,7.63,18.29,11.45,27.44
		c0.65,1.56,1.33,3.11,2.03,4.65c0.94,2.1,2.35,3.65,4.78,3.98c0.17,0.02,0.34,0.13,0.7,0.27c-0.34,0.19-0.51,0.38-0.69,0.38
		c-4.45,0.02-8.91,0.01-13.36,0c-0.16,0-0.33-0.11-0.49-0.17C233.49,283.26,233.49,283.14,233.48,283.03z M220.19,269.08
		c2.62,0.34,11.68,0.22,12.79-0.16c-2.05-4.89-4.09-9.77-6.13-14.65c-0.1-0.01-0.2-0.01-0.31-0.02
		C224.44,259.15,222.34,264.04,220.19,269.08z"/>
	<path class="st2" d="M168.65,279.25c-0.04,0.27,0.01,0.61-0.13,0.8c-1.25,1.69-2.63,3.24-4.78,3.78c-1.89,0.48-3.26-0.4-3.6-2.31
		c-0.08-0.46-0.11-0.94-0.18-1.56c-0.39,0.21-0.68,0.33-0.93,0.52c-1.09,0.8-2.16,1.63-3.26,2.43c-1.35,0.97-2.88,1.3-4.53,1.15
		c-2.42-0.22-4.04-1.54-4.83-3.78c-1.06-3.01-0.18-5.68,2.09-7.55c1.66-1.37,3.55-2.32,5.51-3.17c0.97-0.42,1.96-0.82,2.95-1.21
		c0.98-0.4,1.97-0.78,3.04-1.2c-0.01-1.81,0.04-3.6-0.62-5.29c-0.6-1.54-1.79-2.37-3.43-2.49c-1.32-0.1-2.62-0.04-3.64,1.01
		c-0.6,0.61-0.99,1.29-0.97,2.18c0.02,0.63,0.03,1.26-0.01,1.89c-0.09,1.4-0.92,2.24-2.16,2.25c-1.23,0-2.05-0.88-2.15-2.25
		c-0.17-2.26,1.1-3.74,2.75-4.95c0.69-0.5,1.5-0.9,2.32-1.14c2.65-0.78,5.34-0.76,7.99,0.01c2.76,0.8,4.02,2.82,4.05,5.04
		c0.05,4.4,0.12,8.79,0.19,13.19c0.01,0.87,0.04,1.74,0.1,2.61c0.04,0.64,0.17,1.27,0.85,1.56c0.73,0.32,1.31-0.03,1.84-0.49
		c0.43-0.37,0.87-0.74,1.31-1.1C168.48,279.17,168.56,279.21,168.65,279.25z M159.75,268.79c-1.79,0.77-3.49,1.41-5.11,2.24
		c-1.01,0.52-1.99,1.21-2.8,2.01c-1.47,1.45-1.81,3.26-1.1,5.21c0.81,2.22,2.94,3.24,5.14,2.39c1.11-0.43,2.11-1.14,3.16-1.72
		c0.65-0.37,0.89-0.9,0.88-1.67c-0.04-2.41-0.01-4.83-0.02-7.24C159.9,269.68,159.82,269.35,159.75,268.79z"/>
	<path class="st2" d="M317.8,267.15c0.08-1.81,0.09-3.54-0.54-5.2c-1.05-2.78-5.03-3.63-7.14-1.55c-0.58,0.57-0.93,1.22-0.89,2.06
		c0.03,0.63,0.04,1.26-0.01,1.89c-0.13,1.5-0.97,2.35-2.26,2.33c-1.25-0.02-2.08-0.97-2.14-2.44c-0.05-1.28,0.45-2.36,1.23-3.32
		c1.24-1.52,2.87-2.44,4.77-2.83c2.3-0.46,4.61-0.44,6.88,0.2c2.78,0.77,4.18,2.39,4.29,5.3c0.14,3.67,0.07,7.35,0.12,11.03
		c0.02,1.59,0.15,3.18,0.18,4.77c0.03,1.45,1.46,1.91,2.48,1.01c0.5-0.44,1.02-0.86,1.68-1.42c-0.05,0.53,0.04,0.94-0.13,1.16
		c-1.24,1.63-2.62,3.09-4.68,3.72c-1.54,0.47-3.37-0.33-3.6-2.13c-0.07-0.52-0.18-1.04-0.31-1.72c-0.37,0.21-0.69,0.36-0.97,0.57
		c-1.17,0.85-2.28,1.81-3.51,2.57c-3.29,2.05-7.42,0.88-8.86-2.43c-1.2-2.78-0.58-5.84,1.75-7.77c1.11-0.92,2.34-1.74,3.63-2.37
		c2.08-1.02,4.25-1.84,6.39-2.74C316.71,267.59,317.24,267.38,317.8,267.15z M317.8,268.74c-1.77,0.73-3.31,1.28-4.76,2
		c-1.07,0.53-2.08,1.23-3.02,1.97c-1.02,0.81-1.57,1.93-1.71,3.25c-0.33,3.08,2.4,6.24,6,4.46c0.99-0.49,1.93-1.1,2.84-1.73
		c0.31-0.22,0.62-0.68,0.63-1.04C317.82,274.82,317.8,271.97,317.8,268.74z"/>
	<path class="st2" d="M169.33,258.75c1.57-0.39,10.39-0.34,11.71,0.15c-0.6,0.13-0.93,0.22-1.26,0.28
		c-1.65,0.31-2.31,1.26-1.92,2.91c0.17,0.7,0.42,1.39,0.73,2.04c1.91,4.02,3.84,8.02,5.77,12.02c0.12,0.25,0.29,0.49,0.53,0.9
		c0.24-0.47,0.43-0.77,0.57-1.1c1.68-4.17,3.36-8.33,5.02-12.51c0.26-0.67,0.43-1.38,0.57-2.09c0.23-1.22-0.18-1.83-1.36-2.13
		c-0.35-0.09-0.71-0.16-1.31-0.3c1.03-0.7,1.94-0.37,2.79-0.42c0.87-0.06,1.74-0.02,2.61-0.01c0.89,0.01,1.77,0.04,2.66,0.07
		c0.02,0.09,0.03,0.19,0.05,0.28c-0.16,0.13-0.31,0.35-0.5,0.39c-1.49,0.36-2.2,1.47-2.73,2.77c-1.52,3.76-3.03,7.53-4.56,11.29
		c-2.01,4.97-4.03,9.94-6.05,14.91c-0.79,1.94-1.77,3.77-3.36,5.19c-1.39,1.25-2.94,2.22-4.87,2.32c-1.16,0.06-2.2-0.22-3.02-1.11
		c-0.83-0.9-1.03-2.08-0.49-3.07c0.47-0.87,1.62-1.41,2.74-1.19c0.8,0.16,1.6,0.38,2.35,0.69c1.33,0.55,2.38,0.14,3.25-0.84
		c0.47-0.54,0.89-1.16,1.18-1.81c0.75-1.68,1.38-3.4,2.12-5.08c0.31-0.69,0.01-1.21-0.26-1.77c-2.4-5.06-4.79-10.14-7.21-15.19
		c-0.75-1.57-1.56-3.11-2.4-4.62c-0.62-1.12-1.44-2.06-2.78-2.39C169.69,259.27,169.54,258.98,169.33,258.75z"/>
	<path class="st2" d="M299.86,267.91c-5.78,0-11.42,0-17.22,0c-0.04,4.21,0.97,7.79,4.31,10.38c1.98,1.53,4.22,2.04,6.69,1.51
		c1.95-0.41,3.46-1.44,4.48-3.16c0.42-0.7,0.78-1.44,1.2-2.21c0.58,0.07,0.64,0.37,0.53,0.89c-0.5,2.22-1.57,4.14-3.06,5.84
		c-3.91,4.46-11.22,4.11-15.17-1.03c-1.62-2.11-2.38-4.53-2.61-7.11c-0.22-2.56-0.07-5.14,0.85-7.58c1.65-4.39,4.66-7.09,9.49-7.58
		c6.21-0.63,10.21,3.58,10.59,8.93C299.96,267.08,299.9,267.36,299.86,267.91z M282.85,266.23c3.78,0,7.56,0,11.39,0
		c0.24-1.35,0.03-2.57-0.51-3.72c-1.19-2.56-4.09-3.78-6.67-2.84C284.52,260.59,282.75,263.3,282.85,266.23z"/>
	<path class="st2" d="M133.02,259.99c-1.49,0-2.72,0-3.94,0c-0.04-0.12-0.08-0.25-0.11-0.37c0.83-0.58,1.71-1.1,2.48-1.76
		c0.84-0.72,1.64-1.52,2.32-2.38c0.65-0.83,1.13-1.8,1.69-2.7c0.54-0.86,0.58-2.01,1.72-2.89c0.2,1.62,0.09,3,0.11,4.37
		c0.02,1.34,0,2.69,0,4.19c1.99,0,3.81,0,5.74,0c0.03,0.56,0.05,0.96,0.09,1.53c-1.97,0.04-3.83,0.07-5.73,0.11
		c-0.04,0.55-0.09,0.93-0.09,1.31c0,5.18-0.01,10.36,0,15.54c0,0.53,0.02,1.07,0.12,1.59c0.43,2.2,2.43,3.03,4.28,1.74
		c0.46-0.32,0.78-0.84,1.19-1.25c0.18-0.18,0.42-0.29,0.82-0.55c-0.02,1.03-0.46,1.66-0.86,2.28c-0.99,1.57-2.33,2.7-4.2,3.09
		c-2.37,0.5-4.62-0.81-5.28-3.15c-0.19-0.69-0.29-1.43-0.29-2.14c-0.04-5.52-0.04-11.04-0.05-16.55
		C133.02,261.43,133.02,260.86,133.02,259.99z"/>
</g>
<path class="st2" d="M54.06,189.47c0.56,0.66,1.15,1.34,1.72,2.02c1.89,2.27,3.75,4.58,5.68,6.82c1.31,1.52,2.98,2.29,5.05,2.26
	c4.04-0.06,8.09-0.03,12.14-0.01c4.19,0.02,8.38,0.09,12.57,0.08c9.79-0.01,19.57-0.05,29.36-0.1c1.19-0.01,2.37-0.13,3.56-0.23
	c0.28-0.02,0.56-0.11,0.84-0.2c0.37-0.11,0.52-0.39,0.43-0.75c-0.09-0.34-0.19-0.71-0.38-1c-0.38-0.57-0.8-1.11-1.25-1.62
	c-2.96-3.37-6.33-6.32-9.72-9.23c-10.08-8.66-17.99-18.97-23.53-31.07c-3.21-7.02-5.54-14.32-6.72-21.96
	c-0.57-3.72-0.78-7.46-0.77-11.22c0.04-10.48,2.46-20.43,6.52-30.03c3.91-9.22,9.26-17.53,15.89-25.02
	c5.84-6.6,12.44-12.34,19.59-17.47c6.61-4.74,13.54-8.96,20.81-12.61c9.44-4.74,19.28-8.45,29.49-11.17
	c6.41-1.71,12.9-3.07,19.48-3.95c4-0.54,8-1.04,12.01-1.51c3.22-0.38,6.44-0.83,9.67-0.99c4.25-0.22,8.51-0.25,12.77-0.23
	c2.63,0.01,5.26,0.22,7.88,0.42c2.66,0.2,5.31,0.47,7.96,0.76c2.47,0.27,4.94,0.57,7.4,0.91c5.11,0.69,10.17,1.65,15.2,2.79
	c10.76,2.43,21.18,5.87,31.24,10.4c5.93,2.67,11.64,5.75,17.22,9.08c7.02,4.2,13.61,9,19.68,14.49
	c12.18,11.02,21.41,24.07,27.06,39.55c2.11,5.78,3.48,11.74,4.05,17.88c0.27,2.88,0.44,5.76,0.33,8.64
	c-0.63,16.42-5.66,31.34-15.3,44.67c-2.42,3.34-5,6.54-7.95,9.43c-3.51,3.43-7.04,6.84-10.52,10.3c-2.2,2.19-4.35,4.43-6.48,6.69
	c-0.59,0.62-1.06,1.37-1.52,2.1c-0.23,0.37-0.31,0.84-0.52,1.42c0.76,0.18,1.37,0.39,2,0.45c1.51,0.14,3.02,0.28,4.53,0.29
	c8.09,0.03,16.18-0.01,24.27,0.02c9.03,0.03,18.06,0.07,27.09,0.16c2.69,0.03,4.84-0.98,6.51-3.04c1.77-2.19,3.53-4.39,5.29-6.58
	c0.45-0.56,0.93-1.1,1.44-1.68c0.14,0.09,0.29,0.14,0.36,0.24c2.15,3.07,4.3,6.15,6.45,9.23c0.39,0.56,0.45,1.08,0.05,1.69
	c-2.19,3.31-4.36,6.64-6.54,9.95c-0.24,0.36-0.55,0.67-0.79,1.03c-1.61,2.4-4.01,3.2-6.74,3.21c-9.72,0.03-19.43,0.02-29.15,0.02
	c-26.51,0.02-53.02,0.04-79.53,0.07c-0.45,0-0.91,0-1.36,0c-0.02-0.08-0.05-0.16-0.07-0.24c0.36-0.33,0.7-0.67,1.07-0.98
	c4.93-4.23,9.9-8.41,14.78-12.69c5.7-4.99,10.75-10.57,15.14-16.76c5.34-7.52,9.13-15.78,11.9-24.53
	c1.74-5.51,2.98-11.14,3.82-16.86c0.87-5.94,1.14-11.92,0.91-17.92c-0.33-8.52-1.87-16.83-4.54-24.92
	c-2.01-6.08-4.63-11.89-7.76-17.48c-3.64-6.51-7.89-12.59-12.84-18.18c-6.88-7.77-14.84-14.21-23.88-19.31
	c-5.16-2.91-10.54-5.37-16.15-7.28c-6.15-2.09-12.43-3.76-18.86-4.76c-3.35-0.52-6.71-0.92-10.08-1.25
	c-4.61-0.45-9.24-0.48-13.85-0.18c-22.87,1.48-43.26,9.37-60.65,24.37c-15.27,13.17-25.65,29.56-30.92,49.1
	c-1.27,4.71-2.04,9.51-2.57,14.35c-0.57,5.14-0.78,10.29-0.54,15.45c0.42,8.98,2.04,17.75,4.98,26.26
	c2.6,7.54,6.03,14.69,10.39,21.36c4.36,6.67,9.42,12.78,15.3,18.19c5.46,5.03,11.3,9.55,17.61,13.45c0.15,0.09,0.28,0.21,0.57,0.43
	c-0.95,0.1-1.75,0.22-2.55,0.27c-1.08,0.06-2.16,0.09-3.25,0.09c-35.25,0.01-70.5,0.01-105.76,0.01c-0.83,0-1.67,0.01-2.48-0.15
	c-1.67-0.31-3-1.19-3.94-2.63c-2.47-3.73-4.94-7.46-7.43-11.18c-0.38-0.57-0.5-1.08-0.08-1.69c2.22-3.2,4.42-6.42,6.63-9.63
	C53.84,189.56,53.92,189.55,54.06,189.47z"/>
<path class="st3" d="M274.6,87.35c-1.48,0.98-2.86,1.91-4.25,2.82c-4.24,2.79-8.48,5.58-12.73,8.35
	c-9.21,5.99-18.43,11.96-27.65,17.93c-0.5,0.32-1.05,0.57-1.61,0.79c-1.16,0.46-2.24,0.31-3.33-0.36
	c-8.89-5.49-17.81-10.94-26.71-16.41c-5.86-3.6-11.7-7.22-17.55-10.85c-0.5-0.31-0.94-0.7-1.49-1.11c0.32-0.26,0.5-0.44,0.72-0.57
	c8.46-5.55,16.91-11.12,25.38-16.65c5.51-3.6,11.04-7.16,16.56-10.74c0.87-0.56,1.75-1.11,2.63-1.64c1.22-0.73,2.4-0.6,3.58,0.13
	c2.36,1.45,4.73,2.89,7.1,4.32c1.78,1.06,3.57,2.09,5.36,3.14c0.34,0.2,0.68,0.42,1.09,0.68c-0.24,0.2-0.42,0.38-0.63,0.52
	c-3.24,2.13-6.49,4.24-9.71,6.38c-0.88,0.59-1.78,0.68-2.77,0.41c-0.84-0.22-1.67-0.5-2.52-0.65c-3.87-0.71-7.44,0.1-10.68,2.3
	c-2.4,1.63-4.78,3.3-7.11,5.03c-0.85,0.63-1.61,1.41-2.27,2.24c-1.07,1.32-1,2.88,0.22,4.07c0.92,0.9,1.98,1.7,3.07,2.39
	c2.11,1.34,4.28,2.59,6.45,3.85c2.8,1.63,5.46,3.48,8.05,5.42c1.83,1.38,3.89,2.33,6.18,2.7c1.86,0.3,3.61,0.07,5.31-0.89
	c4.55-2.55,8.91-5.4,13.22-8.32c1.4-0.95,2.48-2.1,2.87-3.81c0.52-2.28-0.45-3.89-2.76-4.2c-3.12-0.42-6.01,0.31-8.68,2
	c-1.75,1.11-3.53,2.16-5.33,3.18c-1.47,0.83-2.95,0.76-4.33-0.24c-1.24-0.89-2.46-1.81-3.82-2.8c0.43-0.3,0.71-0.52,1.01-0.71
	c3.99-2.5,7.97-5.01,11.97-7.49c2.73-1.69,5.48-3.33,8.23-4.97c0.51-0.31,1.05-0.6,1.62-0.77c1.08-0.32,2.11-0.3,3.15,0.36
	c5.34,3.43,10.71,6.8,16.06,10.21c1.75,1.11,3.48,2.24,5.22,3.36C274,86.92,274.27,87.12,274.6,87.35z"/>
<path class="st3" d="M232,193.22c-0.02-0.33-0.05-0.68-0.05-1.02c0-17.51,0-35.02,0-52.54c0-0.92,0.11-1.8,0.52-2.63
	c0.38-0.76,0.93-1.34,1.67-1.79c4.75-2.94,9.48-5.92,14.24-8.87c7.36-4.57,14.72-9.12,22.08-13.67c3.59-2.22,7.18-4.44,10.78-6.64
	c0.35-0.21,0.74-0.68,1.14-0.35c0.23,0.19,0.27,0.7,0.27,1.07c0.06,3.93,0.14,7.86,0.13,11.8c-0.02,6.82-0.1,13.64-0.13,20.46
	c-0.04,6.39-0.05,12.78-0.08,19.17c0,0.54-0.09,1.07-0.11,1.61c-0.09,1.65-0.93,2.87-2.25,3.75c-3.95,2.66-7.92,5.29-11.88,7.93
	c-0.15,0.1-0.31,0.17-0.62,0.35c-0.07-1-0.14-1.87-0.2-2.75c-0.21-3.16-0.39-6.33-0.65-9.49c-0.07-0.81-0.29-1.64-0.59-2.4
	c-0.46-1.21-1.36-1.77-2.63-1.62c-0.88,0.1-1.81,0.29-2.59,0.68c-3.49,1.73-6.94,3.53-10.38,5.36c-0.72,0.38-1.34,0.97-1.96,1.51
	c-0.79,0.69-1.21,1.63-1.37,2.64c-0.26,1.57-0.32,3.15-0.13,4.74c0.09,0.79,0.06,1.59,0.08,2.38c0.06,2.02,0.19,4.03,0.17,6.05
	c-0.02,1.92-0.32,3.8-1.42,5.47c-0.8,1.22-1.85,2.16-3.14,2.74c-3.34,1.51-6.38,3.51-9.47,5.44c-0.37,0.23-0.76,0.42-1.14,0.62
	C232.23,193.25,232.15,193.22,232,193.22z M249.33,151.4c0.39-0.2,0.65-0.32,0.9-0.45c2.41-1.23,4.79-2.52,7.24-3.66
	c2.4-1.12,4.68-2.4,6.82-3.94c0.96-0.69,1.68-1.52,1.74-2.73c0.09-1.91,0.16-3.82,0.08-5.72c-0.04-0.91-0.37-1.84-0.76-2.68
	c-0.6-1.33-1.71-2.06-3.2-1.95c-0.85,0.06-1.76,0.15-2.51,0.51c-3.52,1.69-6.82,3.76-9.77,6.34c-0.27,0.24-0.51,0.51-0.75,0.78
	c-1.11,1.3-1.79,2.78-1.9,4.5c-0.18,2.68,0.4,5.23,1.35,7.71C248.73,150.55,249.04,150.92,249.33,151.4z"/>
<path class="st3" d="M223.71,194.35c-2.52-1.5-4.81-2.86-7.09-4.23c-3.68-2.21-7.36-4.42-11.04-6.63
	c-10.23-6.15-20.47-12.28-30.69-18.46c-0.97-0.59-1.83-1.4-2.68-2.16c-0.88-0.78-0.83-1.89-0.83-2.92c-0.03-5.2-0.05-10.4-0.02-15.6
	c0.03-5.85,0.11-11.69,0.15-17.54c0.04-5.89,0.04-11.77,0.07-17.66c0-0.71,0.07-1.43,0.12-2.27c0.44,0.23,0.76,0.39,1.06,0.57
	c16.06,9.63,32.13,19.26,48.19,28.88c0.85,0.51,1.59,1.12,2.15,1.94c0.54,0.79,0.84,1.64,0.85,2.63c0.03,9.39,0.11,18.77,0.12,28.16
	c0,7.65-0.08,15.31-0.14,22.96C223.9,192.73,223.79,193.44,223.71,194.35z M184.82,147.1c-0.06,0.31-0.1,0.41-0.1,0.52
	c-0.02,5.56-0.03,11.12-0.06,16.68c0,0.54,0.23,0.85,0.68,1.11c1.53,0.89,3.02,1.85,4.55,2.73c2.91,1.67,5.83,3.32,8.76,4.95
	c1.8,1,3.74,1.51,5.81,1.44c3.28-0.11,5.05-1.84,5.25-5.11c0.1-1.58-0.18-3.09-0.8-4.54c-1.2-2.8-3.11-5.02-5.66-6.67
	c-2.82-1.82-5.65-3.62-8.51-5.39c-2.58-1.59-5.19-3.13-7.8-4.67C186.3,147.78,185.61,147.49,184.82,147.1z M184.95,122.28
	c-0.02,0.4-0.04,0.57-0.04,0.75c-0.02,4.91-0.03,9.82-0.04,14.73c0,0.58,0.02,1.16,0,1.73c-0.02,0.49,0.17,0.8,0.6,1.04
	c0.79,0.44,1.54,0.94,2.32,1.39c3.69,2.12,7.37,4.26,11.08,6.34c1.96,1.1,4.1,1.56,6.36,1.37c2.47-0.21,3.93-1.4,4.49-3.8
	c0.47-2,0.19-3.94-0.63-5.81c-1.23-2.79-3.13-5.01-5.69-6.65c-3.19-2.04-6.39-4.07-9.62-6.05c-2.49-1.53-5.02-2.99-7.54-4.46
	C185.88,122.64,185.47,122.51,184.95,122.28z"/>
<line class="st4" x1="473.71" y1="140.59" x2="1603.71" y2="140.59"/>
</svg>
